<svg width="279" height="38" viewBox="0 0 279 38" fill="none" xmlns="http://www.w3.org/2000/svg">
<mask id="mask0_8223_11847" style="mask-type:luminance" maskUnits="userSpaceOnUse" x="63" y="6" width="177" height="26">
<path d="M239.627 6.33203H63.4087V31.6654H239.627V6.33203Z" fill="white"/>
</mask>
<g mask="url(#mask0_8223_11847)">
<path d="M144.326 20.8844C144.326 23.6636 144.326 26.4396 144.326 29.2188C144.326 29.288 144.33 29.3603 144.323 29.4294C144.316 29.5112 144.273 29.5552 144.182 29.5552C144.109 29.5552 144.032 29.5552 143.959 29.5552C142.609 29.5552 141.257 29.5552 139.903 29.5552C139.509 29.5552 139.546 29.5709 139.546 29.2125C139.546 23.8082 139.546 18.4039 139.546 12.9996C139.546 11.8426 138.612 10.8931 137.355 10.8083C136.094 10.7265 135.057 11.5408 134.823 12.5971C134.793 12.7355 134.8 12.8769 134.8 13.0153C134.8 18.385 134.8 23.7547 134.8 29.1213C134.8 29.6275 134.846 29.552 134.349 29.552C133.035 29.5552 131.72 29.552 130.407 29.552C129.986 29.552 130.023 29.5803 130.023 29.1999C130.023 26.2007 130.023 23.2014 130.023 20.2022C130.023 17.7971 130.023 15.392 130.023 12.9901C130.023 12.0061 129.312 11.1415 128.296 10.8837C127.061 10.5725 125.793 11.2044 125.373 12.3393C125.293 12.5531 125.274 12.7701 125.274 12.9933C125.277 18.363 125.274 23.7327 125.274 29.0993C125.274 29.5583 125.274 29.5583 124.776 29.5583C123.485 29.5583 122.197 29.5583 120.906 29.5583C120.82 29.5583 120.733 29.5583 120.646 29.5583C120.537 29.5583 120.49 29.508 120.493 29.4074C120.496 29.3131 120.493 29.2219 120.493 29.1276C120.493 23.7579 120.473 18.3882 120.499 13.0216C120.516 9.81794 122.888 7.21482 126 6.53888C128.275 6.0453 130.34 6.51373 132.174 7.86874C132.418 8.04794 132.418 8.04794 132.645 7.87503C133.805 6.99789 135.116 6.50116 136.607 6.37855C140.15 6.08931 143.499 8.38434 144.206 11.83C144.307 12.3236 144.313 12.8235 144.313 13.3265C144.302 15.2066 144.313 17.0834 144.313 18.9635C144.313 19.6048 144.313 20.2462 144.313 20.8907C144.319 20.8844 144.323 20.8844 144.326 20.8844Z" fill="#414BA6"/>
<path d="M205.62 29.3827C205.493 29.4424 205.383 29.4173 205.273 29.4173C203.809 29.4204 202.348 29.4173 200.884 29.4173C200.54 29.4173 200.54 29.4173 200.416 29.106C199.872 27.7699 199.329 26.4306 198.788 25.0944C198.668 24.7958 198.668 24.7958 198.355 24.7926C196.767 24.7926 195.18 24.7926 193.591 24.7926C193.239 24.7926 193.268 24.7612 193.268 25.0881C193.268 26.4086 193.268 27.7259 193.268 29.0463C193.268 29.128 193.268 29.2098 193.268 29.2915C193.268 29.3795 193.215 29.4141 193.128 29.4173C193.055 29.4173 192.978 29.4173 192.905 29.4173C191.553 29.4173 190.203 29.4173 188.849 29.4173C188.492 29.4173 188.488 29.4173 188.488 29.0746C188.488 24.2645 188.488 19.4575 188.488 14.6473C188.488 12.2329 188.488 9.81525 188.488 7.40075C188.488 7.31901 188.492 7.23727 188.488 7.15553C188.481 7.02663 188.531 6.95747 188.682 6.9669C188.768 6.97318 188.855 6.9669 188.942 6.9669C192.191 6.9669 195.439 6.96061 198.689 6.97004C199.519 6.97318 200.333 7.15553 201.11 7.41333C204.673 8.59542 206.911 10.9313 207.514 14.4336C208.138 18.0553 206.738 20.998 203.599 23.1893C203.569 23.2113 203.538 23.2301 203.508 23.249C203.225 23.4282 203.228 23.4282 203.352 23.7394C204.076 25.522 204.799 27.3046 205.52 29.0872C205.56 29.1878 205.587 29.2852 205.62 29.3827ZM193.268 15.8797C193.268 17.2568 193.268 18.6338 193.268 20.0108C193.268 20.2717 193.272 20.2749 193.512 20.2749C195.172 20.2749 196.838 20.278 198.498 20.2717C199.192 20.2686 199.839 20.0831 200.446 19.7687C202.272 18.8224 203.218 16.9015 202.788 14.9617C202.298 12.761 200.25 11.4595 198.322 11.4815C196.747 11.5004 195.172 11.4846 193.596 11.4846C193.242 11.4846 193.272 11.4532 193.272 11.7802C193.268 13.1477 193.268 14.5122 193.268 15.8797Z" fill="#414BA6"/>
<path d="M77.7552 29.434C75.7971 29.434 73.8358 29.434 71.8778 29.434C71.8277 29.434 71.7777 29.434 71.7277 29.434C71.3374 29.4308 71.3841 29.4623 71.3841 29.1227C71.3841 27.8966 71.3841 26.6705 71.3841 25.4444C71.3841 25.3752 71.3841 25.3029 71.3841 25.2338C71.3907 24.9728 71.3907 24.9728 71.6776 24.9665C71.751 24.9665 71.8277 24.9665 71.9011 24.9665C75.697 24.9665 79.4896 24.9665 83.2856 24.9665C84.333 24.9665 85.0969 24.5295 85.5338 23.6398C86.2877 22.0962 85.0334 20.4456 83.4024 20.4488C81.8013 20.4519 80.2035 20.4582 78.6024 20.4456C77.6284 20.4393 76.6777 20.2916 75.7871 19.9112C73.262 18.8485 71.7877 17.0314 71.4408 14.4471C71.0071 11.2341 73.2386 7.89216 77.108 7.10933C77.605 7.00873 78.1121 6.96786 78.6223 6.96786C82.4551 6.96472 86.2877 6.96786 90.1203 6.96786C90.1703 6.96786 90.2203 6.971 90.2704 6.96786C90.4472 6.949 90.5239 7.01816 90.5039 7.18793C90.4972 7.24452 90.5039 7.30425 90.5039 7.36399C90.5039 8.60267 90.5039 9.83822 90.5039 11.0769C90.5039 11.473 90.5673 11.4353 90.1369 11.4353C87.4818 11.4353 84.8299 11.4353 82.1749 11.4353C80.9706 11.4353 79.7698 11.4322 78.5657 11.4353C77.4249 11.4416 76.4742 12.1458 76.2107 13.1707C75.8405 14.5917 76.9679 15.9719 78.5223 15.9813C80.1234 15.9908 81.7211 15.9908 83.3222 15.9813C86.708 15.9593 89.5732 18.2103 90.3137 21.175C91.1944 24.6962 88.8994 28.3148 85.1803 29.2202C84.5798 29.3648 83.9694 29.4403 83.3456 29.4371C81.4743 29.4277 79.6131 29.434 77.7552 29.434Z" fill="#414BA6"/>
<path d="M116.33 18.3405C116.244 21.5881 114.995 24.4899 112.317 26.7881C110.769 28.1148 108.951 28.9668 106.886 29.2718C103.618 29.7559 100.696 28.9605 98.1773 26.9485C95.9157 25.1376 94.5848 22.8111 94.1412 20.0571C93.5942 16.6586 94.4114 13.565 96.6996 10.8675C98.3374 8.93406 100.459 7.66393 103.044 7.18606C106.319 6.5793 109.291 7.2961 111.887 9.26416C114.209 11.0247 115.576 13.3355 116.116 16.0895C116.253 16.7875 116.309 17.4948 116.33 18.3405ZM98.751 17.9601C98.7577 19.7553 99.218 21.2046 100.232 22.4842C101.276 23.8046 102.65 24.6597 104.398 24.8641C106.383 25.0936 108.087 24.4805 109.475 23.1318C110.713 21.9308 111.369 20.4752 111.503 18.809C111.673 16.69 111.043 14.8194 109.481 13.2632C108.488 12.2728 107.264 11.6598 105.819 11.512C104.025 11.3297 102.437 11.8327 101.109 12.9865C99.5082 14.3792 98.7977 16.143 98.751 17.9601Z" fill="#414BA6"/>
<path d="M239.116 29.3933C238.992 29.4436 238.882 29.4216 238.775 29.4216C237.211 29.4247 235.65 29.4153 234.089 29.4279C233.811 29.431 233.675 29.3367 233.548 29.1166C231.99 26.4129 230.423 23.7155 228.854 21.0149C228.785 20.8954 228.739 20.7602 228.595 20.6407C228.371 20.9111 228.154 21.1752 227.941 21.4393C226.953 22.6528 225.97 23.8664 224.976 25.0736C224.828 25.2528 224.772 25.4289 224.775 25.6489C224.783 26.8059 224.778 27.9597 224.778 29.1166C224.778 29.4184 224.775 29.4184 224.452 29.4184C223.101 29.4184 221.747 29.4184 220.396 29.4184C219.952 29.4184 219.999 29.4562 219.999 29.0412C219.999 22.7849 219.999 16.5286 219.999 10.2691C219.999 9.26625 219.999 8.26021 219.999 7.25731C219.999 6.97122 220.002 6.96807 220.303 6.96807C221.69 6.96807 223.081 6.96807 224.468 6.96807C224.772 6.96807 224.775 6.97122 224.778 7.25417C224.783 8.30422 224.778 9.35427 224.778 10.4075C224.778 12.7999 224.778 15.1924 224.778 17.588C224.778 17.6635 224.749 17.7452 224.816 17.8364C224.932 17.783 224.986 17.6761 225.056 17.588C227.861 14.1455 230.666 10.703 233.462 7.25102C233.629 7.04353 233.799 6.96179 234.078 6.96493C235.816 6.97751 237.551 6.97122 239.289 6.97122C239.398 6.97122 239.506 6.97122 239.626 6.97122C239.652 7.11584 239.545 7.17871 239.486 7.25731C237.031 10.2786 234.579 13.2998 232.107 16.3085C231.867 16.5977 231.84 16.7958 232.034 17.1228C234.355 21.0903 236.657 25.0705 238.962 29.0475C239.022 29.1575 239.119 29.255 239.116 29.3933Z" fill="#414BA6"/>
<path d="M148.377 18.2758C148.377 14.6446 148.377 11.0165 148.377 7.38537C148.377 6.9075 148.334 6.96723 148.808 6.96723C154.005 6.96723 159.199 6.96723 164.395 6.96723C164.919 6.96723 164.839 6.92008 164.842 7.40109C164.845 8.64921 164.842 9.89732 164.842 11.1486C164.842 11.507 164.872 11.485 164.476 11.485C160.866 11.485 157.257 11.485 153.648 11.485C153.584 11.485 153.525 11.485 153.461 11.485C153.138 11.485 153.154 11.4535 153.154 11.7616C153.154 12.5193 153.154 13.2801 153.154 14.0378C153.154 14.5974 153.154 15.157 153.154 15.7198C153.154 16.0342 153.141 16.0059 153.451 16.0059C154.925 16.0059 156.403 16.0059 157.877 16.0059C158.895 16.0059 159.912 16.0059 160.93 16.0059C161.213 16.0059 161.22 16.009 161.22 16.2731C161.223 17.5935 161.22 18.9108 161.223 20.2313C161.223 20.5834 161.173 20.5236 160.883 20.5236C158.451 20.5236 156.023 20.5236 153.591 20.5236C153.158 20.5236 153.158 20.5236 153.158 20.9229C153.158 22.1836 153.158 23.4443 153.158 24.705C153.158 25.0854 153.107 25.0414 153.511 25.0414C157.133 25.0414 160.752 25.0414 164.376 25.0414C164.922 25.0414 164.839 24.9848 164.842 25.491C164.845 26.7296 164.842 27.9652 164.842 29.2039C164.842 29.5843 164.882 29.5591 164.459 29.5591C159.709 29.5591 154.959 29.5591 150.209 29.5591C149.675 29.5591 149.141 29.5528 148.608 29.5623C148.427 29.5654 148.357 29.5057 148.374 29.3422C148.381 29.2605 148.374 29.1787 148.374 29.097C148.377 25.491 148.377 21.8818 148.377 18.2758Z" fill="#414BA6"/>
<path d="M178.454 20.4387C178.454 23.2744 178.454 26.1102 178.454 28.946C178.454 29.0152 178.454 29.0875 178.454 29.1566C178.446 29.4176 178.446 29.4207 178.164 29.4239C176.762 29.4239 175.362 29.4239 173.96 29.4239C173.68 29.4239 173.68 29.4207 173.673 29.1535C173.67 29.0717 173.673 28.99 173.673 28.9083C173.673 23.353 173.673 17.7978 173.673 12.2457C173.673 12.1765 173.673 12.1042 173.673 12.0351C173.673 11.4943 173.673 11.4943 173.116 11.4943C171.145 11.4943 169.173 11.4943 167.202 11.4943C166.705 11.4943 166.751 11.5698 166.751 11.0636C166.748 9.8029 166.751 8.54221 166.751 7.28152C166.751 6.97971 166.756 6.97656 167.079 6.97656C173.152 6.97656 179.23 6.97656 185.304 6.97656C185.622 6.97656 185.625 6.97971 185.625 7.28781C185.625 8.59566 185.625 9.90036 185.625 11.2082C185.625 11.4912 185.622 11.4912 185.318 11.4943C185.245 11.4943 185.168 11.4943 185.095 11.4943C182.987 11.4943 180.878 11.4943 178.77 11.4943C178.42 11.4943 178.454 11.4629 178.454 11.7961C178.454 14.6728 178.454 17.5557 178.454 20.4387Z" fill="#414BA6"/>
<path d="M63.4094 18.1877C63.4094 14.6069 63.4094 11.0259 63.4094 7.44193C63.4094 7.37276 63.4094 7.30045 63.4094 7.23129C63.4161 6.97035 63.4161 6.9672 63.7029 6.9672C65.1039 6.96406 66.5048 6.96406 67.9058 6.9672C68.186 6.9672 68.186 6.97349 68.1926 7.23757C68.1926 7.29731 68.1926 7.3539 68.1926 7.41363C68.1926 14.6005 68.1926 21.7874 68.1926 28.9743C68.1926 29.4961 68.2426 29.4114 67.7156 29.4144C66.4014 29.4176 65.0872 29.4144 63.773 29.4144C63.376 29.4144 63.4094 29.4334 63.4094 29.0718C63.4094 25.4438 63.4094 21.8158 63.4094 18.1877Z" fill="#414BA6"/>
<path d="M215.406 18.2256C215.406 21.797 215.406 25.3653 215.406 28.9367C215.406 29.0059 215.406 29.0782 215.406 29.1474C215.398 29.4083 215.398 29.4146 215.115 29.4146C213.714 29.4146 212.314 29.4146 210.912 29.4146C210.632 29.4146 210.632 29.4083 210.625 29.1442C210.625 29.0845 210.625 29.0279 210.625 28.9682C210.625 21.7813 210.625 14.5944 210.625 7.4075C210.625 6.90448 210.545 6.96736 211.099 6.96736C212.413 6.96421 213.728 6.96736 215.041 6.96736C215.402 6.96736 215.402 6.96736 215.402 7.31004C215.406 10.9444 215.406 14.585 215.406 18.2256Z" fill="#414BA6"/>
<path d="M235.241 31.5626C235.211 31.6632 235.141 31.6946 235.054 31.6538C234.991 31.6255 235.058 31.5469 235.151 31.5469C235.178 31.5469 235.211 31.5563 235.241 31.5626Z" fill="#414BA6"/>
</g>
<path d="M260.456 28.7404V24.2832H251.403C251.403 24.3845 251.403 24.4754 251.403 24.5662C251.403 25.9081 251.403 27.25 251.408 28.5919C251.408 28.7107 251.382 28.7666 251.253 28.7666C249.826 28.7614 248.397 28.7579 246.971 28.7527C246.949 28.7527 246.928 28.7439 246.879 28.7317C246.879 28.6531 246.879 28.5692 246.879 28.4853C246.879 24.1329 246.837 19.7787 246.898 15.428C246.918 14.1141 247.158 12.7966 247.747 11.5683C248.602 9.78786 249.867 8.39879 251.604 7.44303C252.59 6.90138 253.648 6.59037 254.773 6.42438C256.022 6.23917 257.232 6.33527 258.417 6.68821C261.251 7.5304 263.225 9.33881 264.334 12.0523C264.785 13.1583 264.96 14.3272 264.96 15.5206C264.958 19.8154 264.956 24.1102 264.956 28.4049C264.956 28.4696 264.951 28.536 264.953 28.6006C264.958 28.716 264.916 28.7701 264.787 28.7701C263.367 28.7649 261.946 28.7631 260.526 28.7596C260.512 28.7596 260.498 28.7527 260.454 28.7387L260.456 28.7404ZM260.456 19.784V19.5341C260.456 18.1415 260.461 16.749 260.454 15.3564C260.45 14.8287 260.441 14.2958 260.203 13.8066C260.015 13.4169 259.852 13.0046 259.602 12.6569C258.916 11.7133 258.016 11.0704 256.801 10.9201C256.849 10.9009 256.891 10.8816 256.934 10.8642C256.129 10.789 255.339 10.7314 254.56 10.997C253.463 11.3726 252.613 12.0418 252.032 13.036C251.561 13.8433 251.396 14.7256 251.397 15.6464C251.401 16.9674 251.397 18.2865 251.399 19.6075C251.399 19.6634 251.406 19.7176 251.41 19.784H260.454H260.456Z" fill="#414BA6"/>
<path d="M267.876 6.37374C268.028 6.35978 268.173 6.33534 268.319 6.33534C269.483 6.33185 270.648 6.3301 271.813 6.33534C272.185 6.33534 272.185 6.34407 272.185 6.7194C272.185 12.2273 272.183 17.7352 272.185 23.243C272.185 25.0185 272.19 26.7939 272.198 28.5694C272.198 28.7282 272.148 28.7701 272.007 28.7701C270.682 28.7649 269.355 28.7631 268.03 28.7649C267.795 28.7649 267.866 28.5938 267.866 28.4768C267.867 26.3243 267.879 24.1718 267.879 22.0193C267.881 17.1556 267.879 12.2936 267.879 7.42993C267.879 7.08951 267.879 6.74908 267.879 6.37374H267.876Z" fill="#414BA6"/>
<mask id="mask1_8223_11847" style="mask-type:luminance" maskUnits="userSpaceOnUse" x="0" y="2" width="57" height="33">
<path d="M56.8707 2.64844H0V34.8346H56.8707V2.64844Z" fill="white"/>
</mask>
<g mask="url(#mask1_8223_11847)">
<path fill-rule="evenodd" clip-rule="evenodd" d="M55.5069 16.4875C57.3253 17.4866 57.3253 19.9842 55.5069 20.9833L30.9584 34.4707C29.14 35.4698 26.867 34.221 26.867 32.2229V28.2096H21.0026C19.8729 28.2096 18.957 27.338 18.957 26.2628C18.957 25.1877 19.8729 24.3161 21.0026 24.3161H26.867H33.8224H33.8254H34.0952C35.2249 24.3161 36.1409 23.4444 36.1409 22.3693C36.1409 21.2942 35.2249 20.4227 34.0952 20.4227H29.3219H26.867H13.7744C12.6447 20.4227 11.7288 19.551 11.7288 18.4759C11.7288 17.4008 12.6447 16.5291 13.7744 16.5291H26.867H29.3219H29.3239H37.6411C38.7708 16.5291 39.6867 15.6575 39.6867 14.5824C39.6867 13.5072 38.7708 12.6356 37.6411 12.6356H32.8678H26.867H22.0936C20.9639 12.6356 20.048 11.764 20.048 10.6889C20.048 9.61371 20.9639 8.74213 22.0936 8.74213H26.867V5.24798C26.867 3.24983 29.14 2.00099 30.9584 3.00006L55.5069 16.4875ZM12.4107 10.6889C12.4107 11.764 11.4947 12.6356 10.3649 12.6356C9.23511 12.6356 8.31923 11.764 8.31923 10.6889C8.31923 9.61371 9.23511 8.74213 10.3649 8.74213C11.4947 8.74213 12.4107 9.61371 12.4107 10.6889ZM4.09142 18.7354C4.09142 19.8105 3.17553 20.6822 2.04571 20.6822C0.915896 20.6822 0 19.8105 0 18.7354C0 17.6603 0.915896 16.7887 2.04571 16.7887C3.17553 16.7887 4.09142 17.6603 4.09142 18.7354ZM9.27389 28.7287C10.4037 28.7287 11.3196 27.8571 11.3196 26.782C11.3196 25.7068 10.4037 24.8353 9.27389 24.8353C8.14408 24.8353 7.22818 25.7068 7.22818 26.782C7.22818 27.8571 8.14408 28.7287 9.27389 28.7287ZM18.6841 10.6889C18.6841 11.764 17.7682 12.6356 16.6385 12.6356C15.5087 12.6356 14.5927 11.764 14.5927 10.6889C14.5927 9.61371 15.5087 8.74213 16.6385 8.74213C17.7682 8.74213 18.6841 9.61371 18.6841 10.6889ZM8.31923 20.6822C9.44904 20.6822 10.3649 19.8105 10.3649 18.7354C10.3649 17.6603 9.44904 16.7887 8.31923 16.7887C7.1894 16.7887 6.27351 17.6603 6.27351 18.7354C6.27351 19.8105 7.1894 20.6822 8.31923 20.6822ZM17.5931 26.782C17.5931 27.8571 16.6772 28.7287 15.5474 28.7287C14.4176 28.7287 13.5017 27.8571 13.5017 26.782C13.5017 25.7068 14.4176 24.8353 15.5474 24.8353C16.6772 24.8353 17.5931 25.7068 17.5931 26.782Z" fill="#414BA6"/>
</g>
</svg>
