<svg xmlns="http://www.w3.org/2000/svg" width="49.53" height="54" viewBox="0 0 49.53 54">
  <g id="cup" transform="translate(-4.264 -1.58)">
    <path id="Path_211758" data-name="Path 211758" d="M33.146,33.73a.833.833,0,0,1-.488-1.508,43.414,43.414,0,0,1,6.022-3.365c5.945-2.942,12.683-6.276,13.412-14.356.2-2.634-.415-4.574-1.831-5.756a6.422,6.422,0,0,0-5.6-.958.832.832,0,0,1-.423-1.61,8.1,8.1,0,0,1,7.094,1.29c1.274,1.063,2.729,3.169,2.424,7.172-.813,9.019-8.31,12.73-14.334,15.71a42.365,42.365,0,0,0-5.786,3.222A.828.828,0,0,1,33.146,33.73Zm-8.236,0a.829.829,0,0,1-.451-.133,44.755,44.755,0,0,0-4.568-2.4C13.674,28.213,5.159,24.12,4.305,14.651,4,10.636,5.454,8.529,6.728,7.466a8.1,8.1,0,0,1,7.093-1.289.832.832,0,1,1-.423,1.61,6.423,6.423,0,0,0-5.6.958c-1.416,1.181-2.032,3.121-1.83,5.767.769,8.516,8.463,12.215,14.647,15.187a45.864,45.864,0,0,1,4.751,2.5.833.833,0,0,1-.453,1.532Z" transform="translate(0 -0.719)" fill="#efd96a"/>
    <path id="Path_211759" data-name="Path 211759" d="M42.947,63.2H20.554v-8.8A2.235,2.235,0,0,1,22.79,52.17H40.711a2.235,2.235,0,0,1,2.235,2.235Z" transform="translate(-2.723 -8.458)" fill="#444"/>
    <path id="Path_211760" data-name="Path 211760" d="M27.151,52.174a2.235,2.235,0,0,0-2.241,2.233v8.8H20.552v-8.8a2.235,2.235,0,0,1,2.241-2.233Z" transform="translate(-2.723 -8.459)" fill="#333"/>
    <path id="Path_211761" data-name="Path 211761" d="M32.383,52.174a2.235,2.235,0,0,0-2.241,2.233v8.8H28.475v-8.8a2.235,2.235,0,0,1,2.241-2.233Zm11.888,2.233v8.8H39.913v-8.8a2.235,2.235,0,0,0-2.241-2.233h4.366A2.233,2.233,0,0,1,44.271,54.407Z" transform="translate(-4.048 -8.459)" fill="#666"/>
    <path id="Path_211762" data-name="Path 211762" d="M46.474,2.442c-.516,17.807-5.842,28.4-12.969,29.977v7.048H28.223V32.419C21.1,30.843,15.77,20.249,15.255,2.442a.84.84,0,0,1,.836-.862H45.638A.84.84,0,0,1,46.474,2.442Z" transform="translate(-1.837 0)" fill="#fce556"/>
    <path id="Path_211763" data-name="Path 211763" d="M27.846,32.323h0C24.027,30.43,19.1,16.5,19.666,1.58H16.09a.84.84,0,0,0-.836.862C15.761,19.934,20.91,30.54,27.846,32.323Z" transform="translate(-1.837 0)" fill="#ebd250"/>
    <path id="Path_211764" data-name="Path 211764" d="M28.77,32.178c-2.053-6.242-3-17.764-2.369-30.6H24.093c.188,12.8,1.711,24.323,4.131,30.6Z" transform="translate(-3.315 0)" fill="#fff095"/>
    <rect id="Rectangle_25024" data-name="Rectangle 25024" width="3.008" height="8.186" transform="translate(26.386 35.529)" fill="#ebd250"/>
    <path id="Path_211765" data-name="Path 211765" d="M33.558,32.419V43.712h3.008V32.419c7.126-1.576,12.453-12.17,12.969-29.977A.84.84,0,0,0,48.7,1.58H45.123C44.756,19.907,39.549,30.209,33.558,32.419Z" transform="translate(-4.897 0)" fill="#fff095"/>
    <path id="Path_211766" data-name="Path 211766" d="M33.3,11.579l1.45,2.939a.622.622,0,0,0,.468.34l3.243.471a.622.622,0,0,1,.345,1.06L36.46,18.676a.622.622,0,0,0-.179.55l.554,3.23a.622.622,0,0,1-.9.655l-2.9-1.525a.622.622,0,0,0-.579,0l-2.9,1.525a.622.622,0,0,1-.9-.655l.554-3.23a.622.622,0,0,0-.179-.55L26.68,16.389a.622.622,0,0,1,.345-1.06l3.243-.471a.622.622,0,0,0,.468-.34l1.45-2.939A.622.622,0,0,1,33.3,11.579Z" transform="translate(-3.716 -1.614)" fill="#edd200"/>
    <path id="Path_211767" data-name="Path 211767" d="M36.759,41.868H29a1.687,1.687,0,0,1-1.687-1.687h0A1.687,1.687,0,0,1,29,38.5h7.755a1.687,1.687,0,0,1,1.687,1.687h0A1.687,1.687,0,0,1,36.759,41.868Z" transform="translate(-3.854 -6.172)" fill="#feeb75"/>
    <path id="Path_211769" data-name="Path 211769" d="M47.16,66.086H13.81a.833.833,0,0,1,0-1.666H47.16a.833.833,0,0,1,0,1.666Z" transform="translate(-1.457 -10.506)" fill="#666"/>
  </g>
</svg>
