<svg xmlns="http://www.w3.org/2000/svg" width="45" height="45" viewBox="0 0 45 45">
  <g id="fvrte" transform="translate(-1096 -932)">
    <circle id="Ellipse_4" data-name="Ellipse 4" cx="22.5" cy="22.5" r="22.5" transform="translate(1096 932)" opacity="0"/>
    <g id="noun_beautify_3283121" transform="translate(1102.501 938.573)">
      <path id="Path_6386" data-name="Path 6386" d="M24,16.05a.5.5,0,0,0-.2-.51L18.88,12l.76-6a.49.49,0,0,0-.25-.49.5.5,0,0,0-.55,0L14,9.14,8.56,6.58A.51.51,0,0,0,8,6.66a.48.48,0,0,0-.14.53L9.75,12.9,5.64,17.27a.5.5,0,0,0,.36.84h6l2.89,5.26a.5.5,0,0,0,.44.26h0a.51.51,0,0,0,.43-.35l1.84-5.71,5.9-1.13A.5.5,0,0,0,24,16.05Z" fill="#fff"/>
      <path id="Path_6387" data-name="Path 6387" d="M26.35,25.65l-6.5-6.5a.495.495,0,0,0-.7.7l6.5,6.5a.5.5,0,1,0,.7-.7Z" fill="#fff"/>
    </g>
  </g>
</svg>
