<svg width="45" height="45" viewBox="0 0 45 45" fill="none" xmlns="http://www.w3.org/2000/svg">
<circle cx="22.1594" cy="22.0413" r="22" fill="black" fill-opacity="0"/>
<path d="M15.5969 14.8225C15.5969 13.9523 15.9426 13.1177 16.558 12.5023C17.1733 11.887 18.0079 11.5413 18.8782 11.5413C19.7484 11.5413 20.583 11.887 21.1984 12.5023C21.8137 13.1177 22.1594 13.9523 22.1594 14.8225C22.1594 13.9523 22.5051 13.1177 23.1205 12.5023C23.7358 11.887 24.5704 11.5413 25.4407 11.5413C26.3109 11.5413 27.1455 11.887 27.7609 12.5023C28.3762 13.1177 28.7219 13.9523 28.7219 14.8225V14.8304C28.7219 14.9223 28.7219 15.1848 28.672 15.4788H31.3469C31.695 15.4788 32.0289 15.617 32.275 15.8632C32.5211 16.1093 32.6594 16.4432 32.6594 16.7913V18.1038C32.6594 18.4519 32.5211 18.7857 32.275 19.0318C32.0289 19.278 31.695 19.4163 31.3469 19.4163H12.9719C12.6238 19.4163 12.29 19.278 12.0438 19.0318C11.7977 18.7857 11.6594 18.4519 11.6594 18.1038V16.7913C11.6594 16.4432 11.7977 16.1093 12.0438 15.8632C12.29 15.617 12.6238 15.4788 12.9719 15.4788H15.6468C15.6121 15.2644 15.5954 15.0475 15.5969 14.8304V14.8225ZM16.9987 15.4788H20.8469V14.8225C20.8469 14.564 20.796 14.308 20.6971 14.0691C20.5981 13.8302 20.4531 13.6132 20.2703 13.4304C20.0875 13.2476 19.8704 13.1026 19.6316 13.0036C19.3927 12.9047 19.1367 12.8538 18.8782 12.8538C18.6196 12.8538 18.3636 12.9047 18.1248 13.0036C17.8859 13.1026 17.6689 13.2476 17.4861 13.4304C17.3032 13.6132 17.1582 13.8302 17.0593 14.0691C16.9603 14.308 16.9094 14.564 16.9094 14.8225C16.9094 14.9341 16.912 15.1821 16.9685 15.3869C16.9764 15.4182 16.9865 15.4489 16.9987 15.4788ZM23.4719 15.4788H27.3202C27.3322 15.4488 27.3423 15.4181 27.3504 15.3869C27.4068 15.1821 27.4094 14.9341 27.4094 14.8225C27.4094 14.3004 27.202 13.7996 26.8328 13.4304C26.4636 13.0612 25.9628 12.8538 25.4407 12.8538C24.9185 12.8538 24.4178 13.0612 24.0486 13.4304C23.6793 13.7996 23.4719 14.3004 23.4719 14.8225V15.4788ZM31.3469 20.7288V30.5725C31.3469 31.0947 31.1395 31.5954 30.7703 31.9646C30.4011 32.3338 29.9003 32.5413 29.3782 32.5413H23.4719V20.7288H31.3469ZM14.9407 32.5413C14.4185 32.5413 13.9178 32.3338 13.5486 31.9646C13.1793 31.5954 12.9719 31.0947 12.9719 30.5725V20.7288H20.8469V32.5413H14.9407Z" fill="white"/>
</svg>
