<svg id="Group_130521" data-name="Group 130521" xmlns="http://www.w3.org/2000/svg" xmlns:xlink="http://www.w3.org/1999/xlink" width="45" height="45" viewBox="0 0 45 45">
  <defs>
    <linearGradient id="linear-gradient" x1="0.213" y1="0.085" x2="0.807" y2="0.93" gradientUnits="objectBoundingBox">
      <stop offset="0" stop-color="#d8c80e"/>
      <stop offset="1" stop-color="#08bed6"/>
    </linearGradient>
  </defs>
  <g id="multi_live" data-name="multi live" transform="translate(2496 -2606)">
    <path id="Path_156054" data-name="Path 156054" d="M22.5,0A22.5,22.5,0,1,1,0,22.5,22.5,22.5,0,0,1,22.5,0Z" transform="translate(-2496 2606)" fill="url(#linear-gradient)"/>
  </g>
  <g id="noun-chain-3530227" transform="translate(-29.513 -86.515) rotate(50)">
    <path id="Path_211747" data-name="Path 211747" d="M116.586,193.441l.28-.333A.869.869,0,0,1,118.09,193l.667.56a.87.87,0,0,1,.107,1.224l-.28.334-2.516,2.994a4.347,4.347,0,0,1-6.123.535l-3.328-2.794a4.34,4.34,0,0,1-.53-6.122l5.027-5.988v0a4.35,4.35,0,0,1,6.122-.53l1.647,1.381.331.279a.871.871,0,0,1,.106,1.226l-.556.663a.87.87,0,0,1-1.224.107l-.333-.28L115.56,185.2a1.743,1.743,0,0,0-2.446.213l-5.032,5.992a1.732,1.732,0,0,0,.213,2.446l3.328,2.794a1.732,1.732,0,0,0,2.447-.213Z" transform="translate(0 -156.706)" fill="#fff"/>
    <path id="Path_211748" data-name="Path 211748" d="M299.745,23.723l-.28.333a.869.869,0,0,1-1.224.107l-.667-.56a.869.869,0,0,1-.107-1.224l.28-.334,2.516-2.994a4.347,4.347,0,0,1,6.122-.535l3.328,2.794a4.34,4.34,0,0,1,.53,6.122l-5.028,5.988v0a4.35,4.35,0,0,1-6.122.53l-1.647-1.381-.331-.279a.872.872,0,0,1-.106-1.226l.556-.663a.87.87,0,0,1,1.224-.107l.334.28,1.647,1.382a1.743,1.743,0,0,0,2.447-.213l5.031-5.992a1.731,1.731,0,0,0-.213-2.446l-3.328-2.794a1.732,1.732,0,0,0-2.446.213Z" transform="translate(-182.442)" fill="#fff"/>
  </g>
</svg>
