<svg xmlns="http://www.w3.org/2000/svg" width="109.436" height="120.146" viewBox="0 0 109.436 120.146">
  <g id="Group_171661" data-name="Group 171661" transform="translate(-16851.305 -1092.132)">
    <g id="Group_171646" data-name="Group 171646" transform="translate(72.219 859.324)">
      <g id="Group_171635" data-name="Group 171635" transform="translate(16779.086 272.563)">
        <g id="Group_171626" data-name="Group 171626" transform="translate(0)">
          <path id="Path_272604" data-name="Path 272604" d="M1797.159,1860.785a40.2,40.2,0,1,1-40.194-40.195A40.1,40.1,0,0,1,1797.159,1860.785Z" transform="translate(-1716.769 -1820.59)" fill="#e9e9ef"/>
        </g>
        <g id="Group_171634" data-name="Group 171634" transform="translate(12.374 12.661)">
          <g id="Group_171627" data-name="Group 171627" transform="translate(8.184)">
            <path id="Path_272605" data-name="Path 272605" d="M1889.871,1973.98c-.71-.237-5.206-9.7-2.6-15.382s1.656-13.015.947-16.328-.71-9.939,4.5-13.489,8.992-1.656,8.992-1.656,7.386-3.588,14.012-1.222,13.439,9.267,10.836,19.443-1.657,6.863.236,13.725.71,13.489-.947,15.145-11.359,9.7-11.359,9.7Z" transform="translate(-1886.465 -1925.096)" fill="#102d4b"/>
          </g>
          <g id="Group_171628" data-name="Group 171628" transform="translate(0 38.267)">
            <path id="Path_272606" data-name="Path 272606" d="M1873.166,2260.515a40.191,40.191,0,0,1-54.256-1.269l2.379-5.354a17.939,17.939,0,0,1,13.058-10.338l6.35-1.2.1-.027,5.267-1.359,5.342,1.262,5.839,1.38a17.937,17.937,0,0,1,11.689,9Z" transform="translate(-1818.909 -2240.97)" fill="#9e9cab"/>
          </g>
          <g id="Group_171629" data-name="Group 171629" transform="translate(21.892 27.59)">
            <path id="Path_272607" data-name="Path 272607" d="M2010.22,2152.833v12.15l-1.367.914a7.283,7.283,0,0,1-8.751-.5l-.491-.415v-12.15Z" transform="translate(-1999.611 -2152.833)" fill="#e79b79"/>
          </g>
          <g id="Group_171631" data-name="Group 171631" transform="translate(21.892 28.826)" opacity="0.2">
            <g id="Group_171630" data-name="Group 171630">
              <path id="Path_272608" data-name="Path 272608" d="M2010.22,2163.035v5.114a8.857,8.857,0,0,1-10.609-.176v-4.938Z" transform="translate(-1999.611 -2163.035)"/>
            </g>
          </g>
          <g id="Group_171632" data-name="Group 171632" transform="translate(16.49 5.99)">
            <ellipse id="Ellipse_2198" data-name="Ellipse 2198" cx="10.894" cy="13.963" rx="10.894" ry="13.963" fill="#e79b79"/>
          </g>
          <g id="Group_171633" data-name="Group 171633" transform="translate(15.267 3.481)">
            <path id="Path_272609" data-name="Path 272609" d="M1945.843,1967.385s7.672-1.534,11.047-5.831c0,0,3.683,7.366,14.424,7.059,0,0-.614-17.492-14.117-14.424S1944,1962.474,1945.843,1967.385Z" transform="translate(-1944.927 -1953.827)" fill="#102d4b"/>
          </g>
        </g>
      </g>
    </g>
    <path id="Path_272620" data-name="Path 272620" d="M-806.624,481.113c.251-.523.359-1.09.577-1.621v-1.465c-.12-.048-.072-.162-.091-.246a4.99,4.99,0,0,0-3.152-3.757c-1.118-.447-2.247-.867-3.379-1.275a2.654,2.654,0,0,1-1.689-1.685c-.385-1.07-.8-2.129-1.2-3.193a5,5,0,0,0-3.954-3.354c-.055-.011-.1-.018-.126-.079h-1.546a27.967,27.967,0,0,0-3.122,1.3c-.442.2-.89.4-1.329.6a2.967,2.967,0,0,1-1.247.321q0,1.371,0,2.742v-2.742a4.045,4.045,0,0,1-1.565-.481c-.914-.422-1.836-.825-2.747-1.254-.471-.222-.98-.315-1.464-.492H-834.2c-.374.179-.793.217-1.174.386a4.982,4.982,0,0,0-2.737,2.8q-.671,1.692-1.286,3.407a2.678,2.678,0,0,1-1.7,1.718c-1.092.393-2.173.814-3.261,1.219a5.069,5.069,0,0,0-2.9,6.885c.479,1.072.956,2.146,1.46,3.207a2.675,2.675,0,0,1,.006,2.417c-.495,1.05-.966,2.111-1.441,3.171a5.061,5.061,0,0,0,2.9,6.94c1.138.424,2.272.86,3.407,1.289a2.382,2.382,0,0,1,1.445,1.443c.435,1.147.863,2.3,1.3,3.445a5.066,5.066,0,0,0,6.927,2.869q1.516-.678,3.023-1.374a3.612,3.612,0,0,1,1.353-.381,3.018,3.018,0,0,1,1.247.319c1.006.465,2.016.921,3.026,1.378a5.052,5.052,0,0,0,7.055-2.922c.4-1.062.813-2.121,1.2-3.189a2.647,2.647,0,0,1,1.7-1.674c1.081-.387,2.154-.8,3.226-1.21a5.042,5.042,0,0,0,3.268-3.7c.023-.1-.013-.226.117-.281V491.21a25.488,25.488,0,0,0-1.92-4.7,2.819,2.819,0,0,1,.008-2.494C-807.5,483.058-807.086,482.074-806.624,481.113Zm-8.144.906q-.924,5.387-1.858,10.773a1.321,1.321,0,0,1-1.472,1.166c-1.545.008-3.091,0-4.636,0-1.383,0-2.765-.01-4.148-.015v.04l-8.539-.013c-1.19,0-1.6-.368-1.793-1.528q-.862-5.124-1.752-10.243c-.181-1.047.231-1.744,1.12-1.841a1.616,1.616,0,0,1,.9.212c1.486.724,2.975,1.44,4.454,2.179.284.142.408.094.558-.178,1.248-2.267,2.52-4.522,3.761-6.792a1.486,1.486,0,0,1,1.3-.89l0,.04a1.25,1.25,0,0,1,1.232.76c1.258,2.278,2.534,4.546,3.783,6.828.188.344.338.38.68.208,1.464-.737,2.946-1.44,4.418-2.163a1.368,1.368,0,0,1,1.5.043A1.322,1.322,0,0,1-814.768,482.019Z" transform="translate(17766.787 627.694)" fill="#f53872"/>
    <path id="Path_272621" data-name="Path 272621" d="M-743.868,566.269a1.368,1.368,0,0,0-1.5-.043c-1.472.723-2.953,1.426-4.418,2.163-.342.172-.492.135-.68-.208-1.249-2.283-2.524-4.551-3.783-6.829a1.25,1.25,0,0,0-1.232-.76l0-.04a1.486,1.486,0,0,0-1.3.89c-1.241,2.271-2.513,4.525-3.761,6.792-.15.272-.274.32-.558.178-1.479-.738-2.968-1.454-4.454-2.179a1.616,1.616,0,0,0-.9-.212c-.889.1-1.3.794-1.12,1.841q.887,5.12,1.752,10.243c.2,1.16.6,1.526,1.793,1.528l8.539.013v-.04c1.383.005,2.765.013,4.148.015,1.545,0,3.091.006,4.636,0a1.321,1.321,0,0,0,1.472-1.166q.938-5.385,1.858-10.773A1.322,1.322,0,0,0-743.868,566.269Z" transform="translate(17695.389 542.032)" fill="#fff"/>
  </g>
</svg>
