<svg xmlns="http://www.w3.org/2000/svg" width="45" height="45" viewBox="0 0 45 45">
  <g id="multi_live" data-name="multi live" transform="translate(2484 -2604)">
    <circle id="Ellipse_4" data-name="Ellipse 4" cx="22.5" cy="22.5" r="22.5" transform="translate(-2484 2604)" fill="#0e16d8"/>
    <g id="Group_130559" data-name="Group 130559" transform="translate(-7987.032 -8579.573)">
      <g id="vuesax_bold_profile-2user" data-name="vuesax/bold/profile-2user" transform="translate(5505.312 11249.817)">
        <g id="profile-2user" transform="translate(0 0)">
          <g id="Group_130562" data-name="Group 130562" transform="translate(28 -48)">
            <path id="Vector" d="M2.89,0a2.887,2.887,0,0,0-.073,5.774.491.491,0,0,1,.134,0h.043A2.888,2.888,0,0,0,2.89,0Z" transform="translate(3.113 1.756)" fill="#fff"/>
            <path id="Vector-2" data-name="Vector" d="M7.374.849A6.041,6.041,0,0,0,1.2.849,2.4,2.4,0,0,0,0,2.814,2.381,2.381,0,0,0,1.193,4.767a5.622,5.622,0,0,0,3.091.858,5.622,5.622,0,0,0,3.091-.858A2.4,2.4,0,0,0,8.567,2.8,2.4,2.4,0,0,0,7.374.849Z" transform="translate(1.72 8.3)" fill="#fff"/>
          </g>
          <g id="Group_130563" data-name="Group 130563" transform="translate(0 -54.084)">
            <path id="Vector-3" data-name="Vector" d="M2.89,0a2.887,2.887,0,0,0-.073,5.774.491.491,0,0,1,.134,0h.043A2.888,2.888,0,0,0,2.89,0Z" transform="translate(3.113 1.756)" fill="#fff"/>
            <path id="Vector-4" data-name="Vector" d="M7.374.849A6.041,6.041,0,0,0,1.2.849,2.4,2.4,0,0,0,0,2.814,2.381,2.381,0,0,0,1.193,4.767a5.622,5.622,0,0,0,3.091.858,5.622,5.622,0,0,0,3.091-.858A2.4,2.4,0,0,0,8.567,2.8,2.4,2.4,0,0,0,7.374.849Z" transform="translate(1.72 8.3)" fill="#fff"/>
          </g>
        </g>
      </g>
    </g>
    <g id="vs" transform="translate(-2472.994 2615.003)">
      <path id="Path_211754" data-name="Path 211754" d="M15.262,22.2A6.942,6.942,0,1,1,22.2,15.262,6.942,6.942,0,0,1,15.262,22.2Z" transform="translate(-3.764 -3.763)" fill="#fff"/>
      <path id="Path_211755" data-name="Path 211755" d="M16.189,7.1a.293.293,0,0,1-.208-.5L19.5,3.082a.294.294,0,0,1,.416.416L16.4,7.017A.293.293,0,0,1,16.189,7.1ZM3.289,20a.293.293,0,0,1-.208-.5L6.6,15.982a.294.294,0,0,1,.416.416L3.5,19.916A.293.293,0,0,1,3.289,20Z" transform="translate(0 0)" fill="#fff"/>
      <path id="Path_211753" data-name="Path 211753" d="M19.081,27.866a.293.293,0,0,1-.293-.205l-1.61-5.221a.293.293,0,1,1,.56-.173l1.331,4.289,1.246-4.283a.293.293,0,1,1,.563.161l-1.516,5.221a.293.293,0,0,1-.279.211Zm5.333,0h-.929a1.466,1.466,0,0,1-1.451-1.437.293.293,0,1,1,.586,0,.88.88,0,0,0,.865.862h.929a.88.88,0,0,0,.88-.862v-.378a.88.88,0,0,0-.88-.88h-.929a1.466,1.466,0,0,1-1.451-1.451V23.5a1.466,1.466,0,0,1,1.451-1.448h1.064a1.316,1.316,0,0,1,1.316,1.313.293.293,0,0,1-.586,0,.73.73,0,0,0-.73-.727H23.484a.88.88,0,0,0-.865.862v.226a.88.88,0,0,0,.865.88h.929a1.466,1.466,0,0,1,1.466,1.451v.375A1.466,1.466,0,0,1,24.413,27.866Z" transform="translate(-10.016 -13.464)" fill="#0e16d8"/>
    </g>
  </g>
</svg>
