<svg xmlns="http://www.w3.org/2000/svg" width="106.609" height="119.25" viewBox="0 0 106.609 119.25">
  <g id="Group_171646" data-name="Group 171646" transform="translate(-16779.086 -233.704)">
    <g id="Group_171635" data-name="Group 171635" transform="translate(16779.086 272.563)">
      <g id="Group_171626" data-name="Group 171626" transform="translate(0)">
        <path id="Path_272604" data-name="Path 272604" d="M1797.159,1860.785a40.2,40.2,0,1,1-40.194-40.195A40.1,40.1,0,0,1,1797.159,1860.785Z" transform="translate(-1716.769 -1820.59)" fill="#e9e9ef"/>
      </g>
      <g id="Group_171634" data-name="Group 171634" transform="translate(12.374 12.661)">
        <g id="Group_171627" data-name="Group 171627" transform="translate(8.184)">
          <path id="Path_272605" data-name="Path 272605" d="M1889.871,1973.98c-.71-.237-5.206-9.7-2.6-15.382s1.656-13.015.947-16.328-.71-9.939,4.5-13.489,8.992-1.656,8.992-1.656,7.386-3.588,14.012-1.222,13.439,9.267,10.836,19.443-1.657,6.863.236,13.725.71,13.489-.947,15.145-11.359,9.7-11.359,9.7Z" transform="translate(-1886.465 -1925.096)" fill="#102d4b"/>
        </g>
        <g id="Group_171628" data-name="Group 171628" transform="translate(0 38.267)">
          <path id="Path_272606" data-name="Path 272606" d="M1873.166,2260.515a40.191,40.191,0,0,1-54.256-1.269l2.379-5.354a17.939,17.939,0,0,1,13.058-10.338l6.35-1.2.1-.027,5.267-1.359,5.342,1.262,5.839,1.38a17.937,17.937,0,0,1,11.689,9Z" transform="translate(-1818.909 -2240.97)" fill="#9e9cab"/>
        </g>
        <g id="Group_171629" data-name="Group 171629" transform="translate(21.892 27.59)">
          <path id="Path_272607" data-name="Path 272607" d="M2010.22,2152.833v12.15l-1.367.914a7.283,7.283,0,0,1-8.751-.5l-.491-.415v-12.15Z" transform="translate(-1999.611 -2152.833)" fill="#e79b79"/>
        </g>
        <g id="Group_171631" data-name="Group 171631" transform="translate(21.892 28.826)" opacity="0.2">
          <g id="Group_171630" data-name="Group 171630">
            <path id="Path_272608" data-name="Path 272608" d="M2010.22,2163.035v5.114a8.857,8.857,0,0,1-10.609-.176v-4.938Z" transform="translate(-1999.611 -2163.035)"/>
          </g>
        </g>
        <g id="Group_171632" data-name="Group 171632" transform="translate(16.49 5.99)">
          <ellipse id="Ellipse_2198" data-name="Ellipse 2198" cx="10.894" cy="13.963" rx="10.894" ry="13.963" fill="#e79b79"/>
        </g>
        <g id="Group_171633" data-name="Group 171633" transform="translate(15.267 3.481)">
          <path id="Path_272609" data-name="Path 272609" d="M1945.843,1967.385s7.672-1.534,11.047-5.831c0,0,3.683,7.366,14.424,7.059,0,0-.614-17.492-14.117-14.424S1944,1962.474,1945.843,1967.385Z" transform="translate(-1944.927 -1953.827)" fill="#102d4b"/>
        </g>
      </g>
    </g>
    <path id="Path_272612" data-name="Path 272612" d="M-418.8,352.444a11.365,11.365,0,0,1,2.221.68,6.847,6.847,0,0,1,4.081,6.327c.063,7.337.049,14.675.01,22.012a7.055,7.055,0,0,1-7.239,7.013q-9.372.027-18.743,0a1.5,1.5,0,0,0-.975.331c-2.052,1.557-4.119,3.093-6.176,4.642a1.912,1.912,0,0,1-1.406.457,1.662,1.662,0,0,1-1.468-1.41,6.332,6.332,0,0,1-.025-.789q0-15.775,0-31.55c0-4.135,2.014-6.668,6.057-7.624.024-.006.037-.057.055-.087Zm-13.4,19.816h-.023c.024.412.016.83.079,1.236a1.661,1.661,0,0,0,1.672,1.388,1.622,1.622,0,0,0,1.622-1.5c.021-.466.221-.624.614-.769a6.208,6.208,0,0,0,3.947-6.106,6.222,6.222,0,0,0-6.057-5.9,6.272,6.272,0,0,0-6.39,6.156,1.694,1.694,0,0,0,1.625,1.751,1.666,1.666,0,0,0,1.756-1.6c.022-.224.048-.45.092-.671A2.839,2.839,0,0,1-430.408,364a2.82,2.82,0,0,1,2.7,2.484c.192,1.739-.889,2.961-2.837,3.207a1.687,1.687,0,0,0-1.659,1.778C-432.212,371.732-432.2,372-432.2,372.26Zm3.381,6.384a1.669,1.669,0,0,0-1.655-1.7,1.694,1.694,0,0,0-1.717,1.7,1.714,1.714,0,0,0,1.694,1.68A1.691,1.691,0,0,0-428.821,378.644Z" transform="translate(17298.148 -118.74)" fill="#f53872"/>
  </g>
</svg>
