<svg xmlns="http://www.w3.org/2000/svg" width="112.65" height="95.75" viewBox="0 0 112.65 95.75">
  <g id="Group_171662" data-name="Group 171662" transform="translate(-17195.883 -124.528)">
    <g id="Group_171657" data-name="Group 171657">
      <g id="Group_171655" data-name="Group 171655" transform="translate(17683.965 -359.547)">
        <path id="Path_272616" data-name="Path 272616" d="M-439.071,579.824a57.1,57.1,0,0,1-23.168-4.814,56.264,56.264,0,0,1-14.368-9.143A59.089,59.089,0,0,1-487.831,552.9a1.184,1.184,0,0,1,0-1.456,55.749,55.749,0,0,1,10.4-12.282,55.686,55.686,0,0,1,23.514-12.726,62.476,62.476,0,0,1,10.665-1.736,53.708,53.708,0,0,1,7.1-.126,57.739,57.739,0,0,1,11.847,1.77,57.845,57.845,0,0,1,12.5,4.874,56.3,56.3,0,0,1,10.313,7.151,60.514,60.514,0,0,1,10.206,11.31c.449.648.846,1.331,1.282,1.988a.906.906,0,0,1-.052,1.093,59.622,59.622,0,0,1-11.191,13,55.981,55.981,0,0,1-13.451,8.812,54.622,54.622,0,0,1-14.328,4.406A60.531,60.531,0,0,1-439.071,579.824Zm-21.737-27.736a21.806,21.806,0,0,0,21.73,21.9,21.8,21.8,0,0,0,21.9-21.728,21.8,21.8,0,0,0-21.733-21.9A21.8,21.8,0,0,0-460.808,552.088Z" fill="#e9e9ef"/>
        <path id="Path_272617" data-name="Path 272617" d="M-393.569,566.5a21.8,21.8,0,0,1,21.9-21.729,21.8,21.8,0,0,1,21.733,21.9,21.8,21.8,0,0,1-21.9,21.728A21.806,21.806,0,0,1-393.569,566.5Zm21.873-9.634a9.709,9.709,0,0,0-9.775,9.583,9.711,9.711,0,0,0,9.609,9.858,9.707,9.707,0,0,0,9.83-9.638A9.7,9.7,0,0,0-371.7,556.866Z" transform="translate(-67.239 -14.411)" fill="#9e9cab"/>
        <path id="Path_272618" data-name="Path 272618" d="M-341.872,586.683a9.7,9.7,0,0,1,9.664,9.8,9.707,9.707,0,0,1-9.83,9.638,9.711,9.711,0,0,1-9.609-9.858A9.709,9.709,0,0,1-341.872,586.683Z" transform="translate(-97.062 -44.228)" fill="#211940"/>
      </g>
      <g id="Group_171656" data-name="Group 171656" transform="translate(0.457 18)">
        <path id="Union_9" data-name="Union 9" d="M-44.42,168.135a1.662,1.662,0,0,1-1.468-1.409,6.409,6.409,0,0,1-.025-.789q0-15.775,0-31.55c0-4.135,2.013-6.668,6.057-7.624.024-.005.038-.057.056-.086h23.608a11.369,11.369,0,0,1,2.221.679,6.848,6.848,0,0,1,4.081,6.327c.063,7.337.049,14.674.011,22.012a7.055,7.055,0,0,1-7.239,7.013q-9.372.027-18.743,0a1.5,1.5,0,0,0-.975.331c-2.052,1.557-4.119,3.093-6.177,4.642a1.989,1.989,0,0,1-1.215.467A1.732,1.732,0,0,1-44.42,168.135Z" transform="translate(17317.457 -19.648)" fill="#f53872" stroke="rgba(0,0,0,0)" stroke-miterlimit="10" stroke-width="1"/>
        <path id="Path_272619" data-name="Path 272619" d="M-475.739,383.729a11.03,11.03,0,0,0-2.622-5.641,11.076,11.076,0,0,0-5.723-3.535,9.8,9.8,0,0,0-2.714-.327,10.529,10.529,0,0,0-4.9,1.14,10.919,10.919,0,0,0-6.035,7.762,10.75,10.75,0,0,0,2.427,9.5,10.956,10.956,0,0,0,6.227,3.726,9.922,9.922,0,0,0,1.315.192c.047,0,.1-.017.134.044h1.66a5.335,5.335,0,0,1,.843-.122,10.962,10.962,0,0,0,5.289-2.329,11.125,11.125,0,0,0,4.03-6.652,7.915,7.915,0,0,0,.147-1.078c0-.035,0-.074.044-.086v-1.791A4.206,4.206,0,0,1-475.739,383.729Zm-17.962,6.629a8.171,8.171,0,0,1-1.014-1.836,8.247,8.247,0,0,1-.557-3.977,8.413,8.413,0,0,1,2.053-4.721,8.46,8.46,0,0,1,3.8-2.523,8.848,8.848,0,0,1,2.616-.424,9.754,9.754,0,0,1,2.507.4,8.992,8.992,0,0,1,2.3,1.119c.145.1.047.143-.015.2l-2.918,2.917q-.872.872-1.744,1.745c-.051.051-.115.091-.138.165-.059.053-.12.1-.177.16q-3.273,3.272-6.544,6.546A2.146,2.146,0,0,0-493.7,390.359Zm13.207.733a8.381,8.381,0,0,1-4.575,2.644,9.377,9.377,0,0,1-1.73.193,8.883,8.883,0,0,1-3.024-.572,9.313,9.313,0,0,1-1.771-.928c-.13-.086-.1-.132-.01-.221q2.425-2.417,4.845-4.84h0q.874-.87,1.748-1.74,2.494-2.492,4.983-4.989c.137-.137.183-.126.287.031a8.185,8.185,0,0,1,1.358,3.5A8.34,8.34,0,0,1-480.494,391.092Z" transform="translate(17776.383 -261.119)" fill="#fff"/>
      </g>
    </g>
  </g>
</svg>
