<svg xmlns="http://www.w3.org/2000/svg" width="32.406" height="22.279" viewBox="0 0 32.406 22.279">
  <g id="youtube" transform="translate(0 -3)">
    <path id="Path_272559" data-name="Path 272559" d="M31.029,5.147C30.15,3.583,29.2,3.3,27.254,3.186,25.313,3.055,20.434,3,16.207,3s-9.116.055-11.055.184c-1.938.111-2.894.4-3.781,1.963C.466,6.708,0,9.4,0,14.134v.016c0,4.715.466,7.425,1.371,8.97.887,1.564,1.841,1.847,3.779,1.979,1.94.113,6.822.18,11.057.18s9.106-.067,11.049-.178c1.942-.132,2.9-.415,3.775-1.979.913-1.545,1.375-4.255,1.375-8.97v-.016c0-4.737-.462-7.427-1.377-8.989Z" fill="#f44336" fill-rule="evenodd"/>
    <path id="Path_272560" data-name="Path 272560" d="M6,17.652V5.5l10.127,6.076Z" transform="translate(6.152 2.563)" fill="#fafafa" fill-rule="evenodd"/>
  </g>
</svg>
