<svg xmlns="http://www.w3.org/2000/svg" width="95.581" height="95.446" viewBox="0 0 95.581 95.446">
  <g id="Group_184" data-name="Group 184" transform="translate(678.095 -1540.415)">
    <path id="Path_152" data-name="Path 152" d="M-677.943,1791.348l.023,2.09a.812.812,0,0,0-.175-.01v-2.048Z" transform="translate(0 -204.187)" fill="#212121"/>
    <path id="Path_153" data-name="Path 153" d="M-677.943,1784.163l-.152.031v-1.676C-677.708,1783.035-678,1783.615-677.943,1784.163Z" transform="translate(0 -197.002)" fill="#4b4b4b"/>
    <path id="Path_154" data-name="Path 154" d="M-678.095,1802.506a.8.8,0,0,1,.175.011c-.045.309.151.664-.175.921Z" transform="translate(0 -213.266)" fill="#414141"/>
    <path id="Path_155" data-name="Path 155" d="M-519.5,1695.751a18.7,18.7,0,0,1,14.227-17.974,18.481,18.481,0,0,1,22.524,20.4,18.076,18.076,0,0,1-5.653,11.016c-.99.942-2.079,1.027-2.864.22s-.678-1.884.3-2.851c4.623-4.555,5.813-10,3.771-16.035-2.074-6.126-8.858-10.136-15.4-9.447a14.663,14.663,0,0,0-12.918,12.14,14.509,14.509,0,0,0,3.882,12.749c.253.273.52.533.764.814a1.846,1.846,0,0,1,.069,2.66,1.861,1.861,0,0,1-2.667-.068,17,17,0,0,1-4.427-6.237A18.545,18.545,0,0,1-519.5,1695.751Z" transform="translate(-129.046 -111.376)" fill="#020202"/>
    <path id="Path_156" data-name="Path 156" d="M-468.8,1874.635q-4.6,0-9.207,0c-1.243,0-1.824-.552-1.829-1.8,0-.928.009-1.861.092-2.785a4.78,4.78,0,0,1,4.69-4.637c4.181-.12,8.371-.129,12.551,0a4.875,4.875,0,0,1,4.81,5.021c.037.866.028,1.736.007,2.6a1.449,1.449,0,0,1-1.628,1.587C-462.481,1874.639-465.643,1874.635-468.8,1874.635Z" transform="translate(-161.321 -264.383)" fill="#020202"/>
    <path id="Path_157" data-name="Path 157" d="M-444.473,1797.532a5.523,5.523,0,0,1-5.538-5.55,5.545,5.545,0,0,1,5.533-5.469,5.549,5.549,0,0,1,5.54,5.559A5.534,5.534,0,0,1-444.473,1797.532Z" transform="translate(-185.595 -200.253)" fill="#020202"/>
    <path id="Path_158" data-name="Path 158" d="M-460.315,1726.866a9.332,9.332,0,0,1,9.12,7.642,2,2,0,0,1-1.449,2.518c-1.021.206-1.909-.516-2.188-1.779a5.628,5.628,0,0,0-5.432-4.685,5.557,5.557,0,0,0-5.458,4.649,2.083,2.083,0,0,1-1.627,1.8,1.753,1.753,0,0,1-1.776-.771,2.153,2.153,0,0,1-.252-1.787,9.385,9.385,0,0,1,7.679-7.461C-461.241,1726.936-460.777,1726.908-460.315,1726.866Z" transform="translate(-169.774 -151.718)" fill="#020202"/>
    <path id="Path_159" data-name="Path 159" d="M-595.9,1554.393a47.41,47.41,0,0,0-33.745-13.978,47.41,47.41,0,0,0-33.745,13.978,47.411,47.411,0,0,0-13.978,33.745,47.41,47.41,0,0,0,13.978,33.745,47.41,47.41,0,0,0,33.745,13.978,47.41,47.41,0,0,0,33.745-13.978,47.41,47.41,0,0,0,13.978-33.745A47.41,47.41,0,0,0-595.9,1554.393Zm-1.844,65.646a44.821,44.821,0,0,1-31.9,13.214,44.821,44.821,0,0,1-31.9-13.214,44.82,44.82,0,0,1-13.214-31.9,44.819,44.819,0,0,1,13.214-31.9,44.82,44.82,0,0,1,31.9-13.214,44.82,44.82,0,0,1,31.9,13.214,44.82,44.82,0,0,1,13.214,31.9A44.82,44.82,0,0,1-597.745,1620.039Z" transform="translate(-0.591)" fill="#020202"/>
  </g>
</svg>
