<svg xmlns="http://www.w3.org/2000/svg" width="18" height="18" viewBox="0 0 18 18">
  <g id="Group_172590" data-name="Group 172590" transform="translate(-11030 22184)">
    <path id="Path_272542" data-name="Path 272542" d="M15.1,31A2.092,2.092,0,0,1,13,28.9V24.815a2.1,2.1,0,1,1,4.2,0V28.9A2.092,2.092,0,0,1,15.1,31ZM22,31a2.092,2.092,0,0,1-2.1-2.1V15.1a2.1,2.1,0,1,1,4.2,0V28.9A2.092,2.092,0,0,1,22,31Zm6.9,0a2.092,2.092,0,0,1-2.1-2.1V20.985a2.1,2.1,0,1,1,4.2,0V28.9A2.092,2.092,0,0,1,28.9,31Z" transform="translate(11017 -22197)" fill="#fff"/>
  </g>
</svg>
