<svg xmlns="http://www.w3.org/2000/svg" width="44" height="44" viewBox="0 0 44 44">
  <g id="Group_169447" data-name="Group 169447" transform="translate(-11017 22197)">
    <rect id="Rectangle_42212" data-name="Rectangle 42212" width="44" height="44" rx="22" transform="translate(11017 -22197)" fill="rgba(255,255,255,0.3)"/>
    <path id="Path_272542" data-name="Path 272542" d="M15.1,31A2.092,2.092,0,0,1,13,28.9V24.815a2.1,2.1,0,1,1,4.2,0V28.9A2.092,2.092,0,0,1,15.1,31ZM22,31a2.092,2.092,0,0,1-2.1-2.1V15.1a2.1,2.1,0,1,1,4.2,0V28.9A2.092,2.092,0,0,1,22,31Zm6.9,0a2.092,2.092,0,0,1-2.1-2.1V20.985a2.1,2.1,0,1,1,4.2,0V28.9A2.092,2.092,0,0,1,28.9,31Z" transform="translate(11017 -22197)" fill="#fff"/>
  </g>
</svg>
