<svg xmlns="http://www.w3.org/2000/svg" width="24" height="24" viewBox="0 0 24 24">
  <g id="Group_169578" data-name="Group 169578" transform="translate(-12529 19674)">
    <path id="block_FILL0_wght300_GRAD0_opsz48_1" data-name="block_FILL0_wght300_GRAD0_opsz48 1" d="M11.98,22.411a9.637,9.637,0,0,1-3.859-.779,9.879,9.879,0,0,1-5.258-5.255,9.942,9.942,0,0,1,0-7.717A9.879,9.879,0,0,1,8.118,3.4a9.629,9.629,0,0,1,3.858-.779,9.638,9.638,0,0,1,3.859.779,9.88,9.88,0,0,1,5.258,5.255,9.942,9.942,0,0,1,0,7.717,9.878,9.878,0,0,1-5.255,5.258A9.628,9.628,0,0,1,11.98,22.411Zm0-1.182a8.408,8.408,0,0,0,6.18-2.533,8.408,8.408,0,0,0,2.533-6.18,8.441,8.441,0,0,0-.567-3.067,9.217,9.217,0,0,0-1.6-2.675L6.236,19.067a8.372,8.372,0,0,0,2.658,1.609A8.709,8.709,0,0,0,11.978,21.23ZM5.445,18.26,17.72,5.984A8.6,8.6,0,0,0,11.978,3.8,8.408,8.408,0,0,0,5.8,6.337a8.408,8.408,0,0,0-2.533,6.18A8.323,8.323,0,0,0,3.849,15.6,9.3,9.3,0,0,0,5.445,18.26Z" transform="translate(12529.416 -19674.123)" fill="#242424" stroke="#242424" stroke-width="0.4"/>
    <path id="Vector" d="M0,0H24V24H0Z" transform="translate(12529 -19674)" fill="none" opacity="0"/>
  </g>
</svg>
