<svg xmlns="http://www.w3.org/2000/svg" width="15.909" height="17.541" viewBox="0 0 15.909 17.541">
  <path id="Path_271471" data-name="Path 271471" d="M323.921,30.834a.612.612,0,0,1,.612.612v.692a4.044,4.044,0,0,1,4.043,4.387v7.443a4.135,4.135,0,0,1-4.5,4.407h-6.9a4.163,4.163,0,0,1-4.5-4.469V36.523a4.078,4.078,0,0,1,4.05-4.385v-.692a.612.612,0,1,1,1.224,0v.676h5.367v-.676A.612.612,0,0,1,323.921,30.834Zm3.432,7.264H313.891v5.807a2.943,2.943,0,0,0,3.281,3.245h6.9c2.116,0,3.281-1.131,3.281-3.183Zm-3.1,5.134a.611.611,0,1,1-.007,0Zm-3.62,0a.611.611,0,1,1-.007,0Zm-3.627,0a.612.612,0,1,1-.008,0Zm7.248-3.171a.611.611,0,1,1-.007,0Zm-3.62,0a.611.611,0,1,1-.007,0Zm-3.627,0a.612.612,0,1,1-.008,0Zm6.3-6.715h-5.367v.785a.612.612,0,1,1-1.224,0v-.766a2.845,2.845,0,0,0-2.826,3.159v.352h13.462v-.352a2.824,2.824,0,0,0-2.82-3.158v.766a.612.612,0,1,1-1.224,0Z" transform="translate(-312.667 -30.834)" fill="#fff" fill-rule="evenodd"/>
</svg>
