<svg xmlns="http://www.w3.org/2000/svg" width="19" height="19.096" viewBox="0 0 19 19.096">
  <g id="cash_1_" data-name="cash (1)" transform="translate(0 0.076)">
    <circle id="Ellipse_2406" data-name="Ellipse 2406" cx="9.5" cy="9.5" r="9.5" transform="translate(0 -0.076)" fill="#4a5370"/>
    <path id="Path_293532" data-name="Path 293532" d="M17.2,16.142q-.188.193-.387.375l-.006.005q-.228.21-.469.4-.336.271-.7.51l-.071.047a9.464,9.464,0,0,1-5.185,1.537h-.127q-.28,0-.555-.024t-.52-.051l-.142-.019q-.233-.033-.463-.077-.137-.026-.274-.057l-.012,0h0q-.185-.041-.367-.09l-.086-.023q-.171-.047-.339-.1L7.4,18.539,7.281,18.5l-.164-.058-.173-.065L1.651,5.752.913,3.993,3.575,2.877,10.435,0h0l.472,1.125.329.785.175.418.266.633.075.179.268.638,2.516,6,.064.154,1.27,3.029.125.3h0l.736,1.754Z" transform="translate(-0.879)" fill="#43c970"/>
    <path id="Path_293533" data-name="Path 293533" d="M71.647,72.239q-.336.271-.7.51l-.071.047a9.464,9.464,0,0,1-5.185,1.537h-.127q-.279,0-.555-.024t-.52-.051l-.142-.019q-.233-.033-.463-.077-.137-.026-.274-.057l-1.192-2.841-4.071-9.707a1.81,1.81,0,0,0,.42-.258,1.75,1.75,0,0,0,.21-.2,1.8,1.8,0,0,0,.305-1.884l2.612-1.1,1.067-.448.524-.22c.021.05.044.1.069.146a1.813,1.813,0,0,0,1.154.905,1.663,1.663,0,0,0,.181.035,1.788,1.788,0,0,0,.948-.117l.009,0v0l.751,1.793,1.879,4.48.073.175.211.5L69.8,67.829h0l.838,2,.516,1.23Z" transform="translate(-56.183 -55.313)" fill="#3ab760"/>
    <circle id="Ellipse_2407" data-name="Ellipse 2407" cx="3.103" cy="3.103" r="3.103" transform="translate(5.83 8.76)" fill="#53d37a"/>
    <path id="Path_293534" data-name="Path 293534" d="M89.49,25.747c-.065.079-.132.156-.2.233-.1.111-.2.219-.3.324q-.188.193-.387.375l-.006.005q-.228.21-.469.4-.336.271-.7.51l-.071.047a9.464,9.464,0,0,1-5.185,1.537h-.127q-.28,0-.555-.024t-.52-.051l-.142-.019q-.233-.033-.463-.077-.137-.026-.274-.057l-.012,0h0q-.185-.041-.367-.09l-.086-.023L78.9,26.112l-3-11.259-.437-1.643,7.225-1.923,2.45-.653.3-.081.055.206.259.973.2.757.292,1.1.069.257,1.869,7.02.872,3.275.012.045Z" transform="translate(-72.663 -10.162)" fill="#43c970"/>
    <path id="Path_293535" data-name="Path 293535" d="M135.435,73.522l-.006.005q-.228.21-.469.4-.336.271-.7.51l-.071.047a9.464,9.464,0,0,1-5.185,1.537h-.127q-.28,0-.555-.024t-.52-.051l-.142-.019-.848-3.185-.405-1.521-.9-3.4h0l-1.4-5.253a1.809,1.809,0,0,0,.451-.2,1.777,1.777,0,0,0,.236-.174,1.8,1.8,0,0,0,.559-1.825l1.983-.528.469-.125,1.466-.391.486-.129c.012.044.025.087.04.129a1.8,1.8,0,0,0,.392.647,1.821,1.821,0,0,0,.635.432l.047.018a1.794,1.794,0,0,0,1.091.052l1.74,6.534.06.224.726,2.727.1.381h0l.514,1.931Z" transform="translate(-119.496 -57.005)" fill="#3ab760"/>
    <circle id="Ellipse_2408" data-name="Ellipse 2408" cx="3.103" cy="3.103" r="3.103" transform="translate(7.442 8.956)" fill="#53d37a"/>
    <path id="Path_293536" data-name="Path 293536" d="M164.689,46.191l-.04.062a9.542,9.542,0,0,1-.71.972c-.065.079-.132.156-.2.233-.1.111-.2.219-.3.324q-.188.193-.387.375l-.006.005q-.228.21-.469.4-.336.271-.7.51l-.071.047a9.464,9.464,0,0,1-5.185,1.537H156.5q-.279,0-.555-.024t-.52-.051l-.142-.019q-.233-.033-.463-.077l-.385-3.108-.166-1.336-.567-4.573-.7-5.653-.171-1.377-.038-.311,1.105-.137.593-.073,2.983-.37,2.738-.339,1.383-.172,1.444-.179.137,1.108.04.326.266,2.145,1.169,9.432Z" transform="translate(-147.113 -31.64)" fill="#43c970"/>
    <path id="Path_293537" data-name="Path 293537" d="M201.228,84.944c-.1.111-.2.219-.3.324q-.188.193-.387.375l-.006.005q-.228.21-.469.4-.336.271-.7.51l-.071.047a9.464,9.464,0,0,1-5.185,1.537h-.127q-.28,0-.555-.024l-.507-4.091-.013-.1-.085-.685-.432-3.488-.194-1.568-.475-3.828a1.811,1.811,0,0,0,.474-.135,1.772,1.772,0,0,0,.257-.141,1.8,1.8,0,0,0,.8-1.731l.052-.007.948-.117h.01l1.026-.127.106-.013,2.381-.295a1.791,1.791,0,0,0,.276.759,1.736,1.736,0,0,0,.2.257,1.8,1.8,0,0,0,1.532.551l.88,7.1L201,83.1l.007.059Z" transform="translate(-184.601 -69.127)" fill="#3ab760"/>
    <g id="Group_172477" data-name="Group 172477" transform="translate(8.308 2.329)">
      <circle id="Ellipse_2409" data-name="Ellipse 2409" cx="3.103" cy="3.103" r="3.103" transform="translate(0.705 7.042)" fill="#53d37a"/>
      <path id="Path_293538" data-name="Path 293538" d="M233.978,62.683v9.872a9.454,9.454,0,0,1-1.058,2.35l-.04.062a9.547,9.547,0,0,1-.71.972c-.065.079-.132.156-.2.233-.1.111-.2.219-.3.324q-.188.193-.387.375l-.006.005q-.228.21-.469.4-.336.271-.7.51l-.071.047a9.464,9.464,0,0,1-5.185,1.537h-.127q-.28,0-.555-.024t-.52-.051V62.683Z" transform="translate(-223.653 -62.683)" fill="#53d37a"/>
    </g>
    <path id="Path_293539" data-name="Path 293539" d="M261.324,94.025v9.383a9.54,9.54,0,0,1-.71.972c-.065.079-.132.156-.2.233-.1.111-.2.219-.3.324q-.188.193-.387.375l-.006.005q-.228.21-.469.4-.336.271-.7.51l-.071.047a9.464,9.464,0,0,1-5.185,1.537h-.1V94.025a1.8,1.8,0,0,0,1.012-.333,1.8,1.8,0,0,0,.723-1.116,1.859,1.859,0,0,0,.034-.353h4.557a1.8,1.8,0,0,0,.634,1.373c.028.024.057.047.087.069A1.8,1.8,0,0,0,261.324,94.025Z" transform="translate(-243.788 -88.796)" fill="#43c970"/>
    <circle id="Ellipse_2410" data-name="Ellipse 2410" cx="3.103" cy="3.103" r="3.103" transform="translate(10.368 9.924)" fill="#53d37a"/>
  </g>
</svg>
