<svg width="40" height="40" viewBox="0 0 40 40" fill="none" xmlns="http://www.w3.org/2000/svg">
<circle opacity="0.3" cx="20" cy="20" r="20" fill="white"/>
<path d="M12.084 25.8332C11.7368 25.8332 11.4416 25.7116 11.1986 25.4686C10.9555 25.2255 10.834 24.9304 10.834 24.5832V15.4165C10.834 15.0693 10.9555 14.7741 11.1986 14.5311C11.4416 14.288 11.7368 14.1665 12.084 14.1665H21.2507C21.5979 14.1665 21.893 14.288 22.1361 14.5311C22.3791 14.7741 22.5007 15.0693 22.5007 15.4165V24.5832C22.5007 24.9304 22.3791 25.2255 22.1361 25.4686C21.893 25.7116 21.5979 25.8332 21.2507 25.8332H12.084ZM25.0007 19.1665C24.7645 19.1665 24.5666 19.0866 24.4069 18.9269C24.2472 18.7672 24.1673 18.5693 24.1673 18.3332V14.9998C24.1673 14.7637 24.2472 14.5658 24.4069 14.4061C24.5666 14.2464 24.7645 14.1665 25.0007 14.1665H28.334C28.5701 14.1665 28.768 14.2464 28.9277 14.4061C29.0875 14.5658 29.1673 14.7637 29.1673 14.9998V18.3332C29.1673 18.5693 29.0875 18.7672 28.9277 18.9269C28.768 19.0866 28.5701 19.1665 28.334 19.1665H25.0007ZM13.334 22.4998H20.0007L17.8132 19.5832L16.2507 21.6665L15.1048 20.1457L13.334 22.4998ZM25.0007 25.8332C24.7645 25.8332 24.5666 25.7533 24.4069 25.5936C24.2472 25.4339 24.1673 25.2359 24.1673 24.9998V21.6665C24.1673 21.4304 24.2472 21.2325 24.4069 21.0728C24.5666 20.913 24.7645 20.8332 25.0007 20.8332H28.334C28.5701 20.8332 28.768 20.913 28.9277 21.0728C29.0875 21.2325 29.1673 21.4304 29.1673 21.6665V24.9998C29.1673 25.2359 29.0875 25.4339 28.9277 25.5936C28.768 25.7533 28.5701 25.8332 28.334 25.8332H25.0007Z" fill="white"/>
</svg>
