<svg xmlns="http://www.w3.org/2000/svg" width="21.973" height="19.018" viewBox="0 0 21.973 19.018">
  <path id="Path_161" data-name="Path 161" d="M-568.38,1479.089v1.288c-.047.01-.042.049-.046.083a7.038,7.038,0,0,1-.233,1.088,11.261,11.261,0,0,1-2.3,4,32.981,32.981,0,0,1-8.039,6.624.667.667,0,0,1-.748-.006,35,35,0,0,1-7.242-5.692,14.64,14.64,0,0,1-2.67-3.756,6.732,6.732,0,0,1,1.19-7.667,5.446,5.446,0,0,1,5.672-1.526,5.741,5.741,0,0,1,3.315,2.561c.1.156.137.15.227,0a4.989,4.989,0,0,1,.777-.994,5.454,5.454,0,0,1,5.885-1.507,6.046,6.046,0,0,1,4.038,4.621C-568.48,1478.492-568.437,1478.792-568.38,1479.089Z" transform="translate(590.353 -1473.263)" fill="#fff"/>
</svg>
