<svg xmlns="http://www.w3.org/2000/svg" xmlns:xlink="http://www.w3.org/1999/xlink" width="117.287" height="48.701" viewBox="0 0 117.287 48.701">
  <defs>
    <linearGradient id="linear-gradient" x1="0.381" x2="0.314" y2="1" gradientUnits="objectBoundingBox">
      <stop offset="0" stop-color="#505050"/>
      <stop offset="0.099" stop-color="#a9a9a9"/>
      <stop offset="0.14" stop-color="#c9c9c9"/>
      <stop offset="0.258" stop-color="#f9f9f9"/>
      <stop offset="0.36" stop-color="#c9c9c9"/>
      <stop offset="0.489" stop-color="#505050"/>
      <stop offset="0.5" stop-color="#5b5b5b"/>
      <stop offset="0.577" stop-color="#a9a9a9"/>
      <stop offset="0.613" stop-color="#c9c9c9"/>
      <stop offset="0.737" stop-color="#f9f9f9"/>
      <stop offset="0.839" stop-color="#c9c9c9"/>
      <stop offset="1" stop-color="#505050"/>
    </linearGradient>
    <filter id="Path_211781" x="0" y="0" width="117.287" height="48.701" filterUnits="userSpaceOnUse">
      <feOffset dy="3" input="SourceAlpha"/>
      <feGaussianBlur stdDeviation="3" result="blur"/>
      <feFlood/>
      <feComposite operator="in" in2="blur"/>
      <feComposite in="SourceGraphic"/>
    </filter>
  </defs>
  <g transform="matrix(1, 0, 0, 1, 0, 0)" filter="url(#Path_211781)">
    <path id="Path_211781-2" data-name="Path 211781" d="M14.739-20.959a61.793,61.793,0,0,0-8.981,1.046,192,192,0,0,1,.83-21.1c.108-1.082-6.132-.4-6.312.757-.108.5.83,25.1,1.443,25,1.407.4,9.234-.5,12.444-.469C15.172-15.729,15.5-21,14.739-20.959ZM28.121-43.611c-12.985,0-14.319,27.737-2.489,28.35C34.649-14.791,40.817-43.611,28.121-43.611Zm-2.092,21.93c-3.679,0-3.1-16.484,3.21-16.484C33.243-38.164,31.547-21.681,26.029-21.681ZM50.448-44.3c-7.683.361-13.49,5.122-13.237,10.388.325,7.538,6.637,7.358,6.817,10.857.108,1.767-3.643,3.174-5.3,3.823-.613.216.289,5.843,1.731,5.627,3.282-.5,10.965-2.02,10.893-9.126-.072-4.941-6.925-4.545-6.853-9.45.072-4.148,4.581-4.364,6.853-4.869C52.287-37.227,51.638-44.332,50.448-44.3Zm21.245,24.96A64.683,64.683,0,0,0,61.629-18.11c.036-1.587.144-4.04.289-6.673,2.308-.108,5.663-.325,5.7-.577.072-.361.5-3.571,0-3.787a36.117,36.117,0,0,0-5.374-.216c.108-1.876.252-3.715.361-5.3,4.076-.757,8.152-1.515,8.4-1.659.469-.252,1.154-5.086.613-5.735-.577-.685-18,3.318-18.287,3.932-.325.613.108,4.581.794,4.978,0,0,1.01-.18,2.561-.469.289,7.394,1.046,19.658,1.443,19.55,1.443.4,10.063-.757,13.237-.757C72.378-14.791,72.45-19.372,71.692-19.336Zm27.737-.072a58.256,58.256,0,0,1-6.06-8.26c3.535-3.427,3.354-8.368,2.777-10.749-2.164-8.8-17.926-6.853-21.858,1.01-.721,1.371,4,5.555,4.509,4.112,2.741-7.575,13.093-6.961,13.923-2.669.721,3.643-1.7,6.2-4.364,7.322.036-3.463.18-6.168.252-6.529.252-1.371-4.112-2.849-4.473-1.01-.108.577-1.731,20.668-1.659,21.173.216,1.154,6.456,1.876,6.312.794-.325-2.922-.433-6.925-.469-10.64.469-.144.9-.289,1.335-.469,1.3,2.849,3.823,7.935,5.194,9.306C95.715-15.152,100.367-18.4,99.43-19.408Z" transform="translate(8.73 50.3)" fill="url(#linear-gradient)"/>
  </g>
</svg>
