<svg xmlns="http://www.w3.org/2000/svg" width="45" height="45" viewBox="0 0 45 45">
  <g id="Group_137749" data-name="Group 137749" transform="translate(-2043 -6194)">
    <g id="rqst" transform="translate(1637 5376)">
      <circle id="Ellipse_5" data-name="Ellipse 5" cx="22.5" cy="22.5" r="22.5" transform="translate(406 818)" opacity="0.45"/>
      <g id="noun_friends_1205616" transform="translate(409.7 793.6)">
        <path id="Path_72234" data-name="Path 72234" d="M7.3,77.385v3.337H22.109V77.385A3.543,3.543,0,0,0,18.524,73.8H10.913A3.619,3.619,0,0,0,7.3,77.385Z" transform="translate(0 -25.637)" fill="#fff"/>
        <path id="Path_72235" data-name="Path 72235" d="M23.237,46.673A4.137,4.137,0,1,0,19.1,42.537,4.185,4.185,0,0,0,23.237,46.673Z" transform="translate(-8.546)" fill="#fff"/>
        <path id="Path_72236" data-name="Path 72236" d="M61.72,51.139a3.42,3.42,0,1,0-3.42-3.42A3.419,3.419,0,0,0,61.72,51.139Z" transform="translate(-36.935 -4.273)" fill="#fff"/>
        <path id="Path_72237" data-name="Path 72237" d="M66.674,73.6H60.8a4.561,4.561,0,0,1,1.6,3.475l.165,3.475H69.68V76.578A2.955,2.955,0,0,0,66.674,73.6Z" transform="translate(-38.746 -25.493)" fill="#fff"/>
      </g>
    </g>
  </g>
</svg>
