<svg xmlns="http://www.w3.org/2000/svg" xmlns:xlink="http://www.w3.org/1999/xlink" width="83.002" height="83.002" viewBox="0 0 83.002 83.002">
  <defs>
    <linearGradient id="linear-gradient" x1="0.213" y1="0.085" x2="0.807" y2="0.93" gradientUnits="objectBoundingBox">
      <stop offset="0" stop-color="#d8c80e"/>
      <stop offset="1" stop-color="#08bed6"/>
    </linearGradient>
    <filter id="Path_211835" x="9.241" y="35.687" width="67.505" height="17.174" filterUnits="userSpaceOnUse">
      <feOffset dy="1" input="SourceAlpha"/>
      <feGaussianBlur stdDeviation="0.5" result="blur"/>
      <feFlood flood-opacity="0.18"/>
      <feComposite operator="in" in2="blur"/>
      <feComposite in="SourceGraphic"/>
    </filter>
  </defs>
  <g id="Group_130670" data-name="Group 130670" transform="translate(-4631.924 -11794.887)">
    <g id="Group_130668" data-name="Group 130668" transform="translate(4631.924 11794.887)">
      <g id="multi_live" data-name="multi live">
        <path id="Path_211834" data-name="Path 211834" d="M41.5,0A41.5,41.5,0,1,1,0,41.5,41.5,41.5,0,0,1,41.5,0Z" fill="url(#linear-gradient)"/>
      </g>
    </g>
    <g id="Group_130669" data-name="Group 130669" transform="translate(4639.039 11793)">
      <g id="Group_130524" data-name="Group 130524" transform="translate(2.961 32)">
        <g transform="matrix(1, 0, 0, 1, -10.08, -30.11)" filter="url(#Path_211835)">
          <path id="Path_211835-2" data-name="Path 211835" d="M.665-.855,1.1-4.617l.836.627a4.966,4.966,0,0,0,2.717.8,1.979,1.979,0,0,0,1.1-.285.855.855,0,0,0,.437-.741A.843.843,0,0,0,6-4.76a2.538,2.538,0,0,0-.665-.523L3.876-6.1A3.57,3.57,0,0,1,1.824-9.291,4.061,4.061,0,0,1,3.505-12.6a6.513,6.513,0,0,1,4.171-1.33,7.066,7.066,0,0,1,2.736.513,6.216,6.216,0,0,1,.75.38q.276.171.884.627l-.532,4.123q-.152-.266-.257-.418t-.314-.4a3.972,3.972,0,0,0-1.273-1.007,3.194,3.194,0,0,0-1.463-.418,1.415,1.415,0,0,0-.912.3.936.936,0,0,0-.38.76q0,.684,1.52,1.577l1.216.7a4.657,4.657,0,0,1,1.5,1.254,2.49,2.49,0,0,1,.475,1.482A4,4,0,0,1,9.795-1.074,7.818,7.818,0,0,1,5.111.247,10.953,10.953,0,0,1,2.565-.076,10.4,10.4,0,0,1,1.5-.456Q1.273-.551.665-.855ZM11.8-10.07l.456-3.629H24.681l-.437,3.61h-3.7L19.285,0H14.25l1.216-10.07ZM20.444,0l7.429-13.7h4.959L36.86,0H31.388l-.456-2.223H26.98L25.973,0Zm8.968-8.132L28.1-5.3h2.432l-.57-2.831L29.83-8.55l-.038-.532a1.993,1.993,0,0,1-.152.532ZM37.354,0l1.653-13.7h7.771a3.944,3.944,0,0,1,2.755.931,3.242,3.242,0,0,1,1.026,2.527,3.178,3.178,0,0,1-2.717,3.5,2.647,2.647,0,0,1,1.539.931,5.862,5.862,0,0,1,.389.627,5.322,5.322,0,0,1,.313.741q.247.722.437,1.359t.266.9L51.4,0H46.436l-.247-1.083a20.132,20.132,0,0,0-.57-1.947A8.608,8.608,0,0,0,44.973-4.5a1.6,1.6,0,0,0-1.52-.817h-.4L42.408,0Zm6.365-10.868-.38,3.116h.627a1.394,1.394,0,0,0,1.121-.494A2.022,2.022,0,0,0,45.505-9.6q0-1.273-1.159-1.273Zm8.569.8.456-3.629H65.17l-.437,3.61H61.028L59.774,0H54.739l1.216-10.07Z" transform="translate(10.08 50.11)" fill="#fff"/>
        </g>
      </g>
    </g>
  </g>
</svg>
