<svg width="100" height="150" viewBox="0 0 100 150" fill="none" xmlns="http://www.w3.org/2000/svg">
<path d="M57.4803 33.2602C53.3325 30.2466 47.716 30.2466 43.5682 33.2602L9.92743 57.7016C5.77965 60.7151 4.04405 66.0568 5.62836 70.9328L18.478 110.48C20.0623 115.356 24.6061 118.657 29.7331 118.657H71.3153C76.4423 118.657 80.9861 115.356 82.5704 110.48L95.4201 70.9328C97.0044 66.0568 95.2688 60.7151 91.121 57.7016L57.4803 33.2602Z" fill="url(#paint0_linear_3407_1686)"/>
<path d="M66.8447 62.8281L73.5212 73.6269H59.723L66.8447 62.8281Z" fill="white"/>
<path d="M50.3758 63.5678L57.3491 73.6269H43.5509L50.3758 63.5678Z" fill="white"/>
<path d="M34.2037 62.8281L41.177 73.6269H27.5272L34.2037 62.8281Z" fill="white"/>
<path d="M42.364 73.0352L49.1889 62.8281H35.2423L42.364 73.0352Z" fill="white"/>
<path d="M65.5094 62.8281H51.4144L58.6844 73.0352L65.5094 62.8281Z" fill="white"/>
<path d="M59.1295 74.8104H73.5212L51.4144 99.6624L59.1295 74.8104Z" fill="white"/>
<path d="M43.1058 74.8104H57.9426L50.3758 98.6269L43.1058 74.8104Z" fill="white"/>
<path d="M27.5272 74.8104H41.9189L49.1889 99.6624L27.5272 74.8104Z" fill="white"/>
<defs>
<linearGradient id="paint0_linear_3407_1686" x1="62.2452" y1="40.3372" x2="40.6631" y2="156.569" gradientUnits="userSpaceOnUse">
<stop stop-color="#F6CD02"/>
<stop offset="1" stop-color="#907104"/>
</linearGradient>
</defs>
</svg>
