<svg xmlns="http://www.w3.org/2000/svg" width="44" height="44" viewBox="0 0 44 44">
  <g id="Group_169450" data-name="Group 169450" transform="translate(-11017 22017)">
    <rect id="Rectangle_42215" data-name="Rectangle 42215" width="44" height="44" rx="22" transform="translate(11017 -22017)" fill="rgba(255,255,255,0.3)"/>
    <path id="Path_272545" data-name="Path 272545" d="M21.982,192.239a2.043,2.043,0,0,1,.984.256l3.591,1.792q1.807.9,3.613,1.809a.746.746,0,0,1,.272.215.4.4,0,0,1-.17.582c-.322.166-.647.328-.97.491l-3.1,1.553q-1.524.761-3.05,1.519a5.077,5.077,0,0,1-.609.277,1.806,1.806,0,0,1-1.448-.125c-.556-.279-1.11-.561-1.667-.838-.3-.151-.612-.289-.914-.441-.516-.258-1.028-.523-1.543-.781-.816-.409-1.633-.814-2.449-1.222-.286-.144-.566-.3-.856-.436a.41.41,0,0,1-.026-.722q.426-.221.856-.434l4.094-2.045c.8-.4,1.6-.806,2.406-1.205a2.043,2.043,0,0,1,.99-.244Z" transform="translate(11017 -22197)" fill="#fff"/>
    <path id="Path_272546" data-name="Path 272546" d="M21.319,207.248V211.3a.613.613,0,0,0,0,.073.43.43,0,0,1-.627.4c-.475-.231-.958-.448-1.438-.668-.406-.187-.814-.37-1.22-.558-.534-.246-1.066-.5-1.6-.745-.425-.2-.854-.385-1.279-.581s-.884-.394-1.31-.62a1.732,1.732,0,0,1-.9-1.2,4.457,4.457,0,0,1-.048-.985q0-2.037,0-4.075,0-1.217,0-2.432c0-.251.009-.5,0-.753a.427.427,0,0,1,.616-.392c.713.337,1.432.66,2.148.99l3.431,1.583c.51.236,1.024.462,1.527.714a1.18,1.18,0,0,1,.692,1.108c.007,1.183,0,2.366,0,3.548v.545h0Z" transform="translate(11017 -22197)" fill="#fff"/>
    <path id="Path_272547" data-name="Path 272547" d="M22.624,207.248c0-1.355,0-2.71,0-4.065a1.208,1.208,0,0,1,.691-1.138c.384-.2.782-.366,1.174-.547l3.6-1.667c.771-.356,1.546-.7,2.311-1.068a.44.44,0,0,1,.637.406c-.011.357-.006.714-.006,1.071q0,1.815,0,3.63c0,1.035.006,2.069,0,3.1a1.808,1.808,0,0,1-1.14,1.732l-3.965,1.83-2.279,1.051c-.148.068-.3.125-.446.2a.428.428,0,0,1-.583-.393c.016-.338,0-.677,0-1.016Z" transform="translate(11017 -22197)" fill="#fff"/>
  </g>
</svg>
