<svg xmlns="http://www.w3.org/2000/svg" width="24" height="24" viewBox="0 0 24 24">
  <g id="Group_169575" data-name="Group 169575" transform="translate(-12543 19636)">
    <path id="Danger_Triangle" data-name="Danger Triangle" d="M11.86,3.04a2.829,2.829,0,0,1,2.483,1.44l7.315,12.79a2.863,2.863,0,0,1-2.484,4.283H4.533A2.863,2.863,0,0,1,2.048,17.27L9.377,4.478A2.828,2.828,0,0,1,11.86,3.04Zm0,1.527a1.322,1.322,0,0,0-1.158.671L3.373,18.029a1.336,1.336,0,0,0,1.159,2H19.174a1.335,1.335,0,0,0,1.157-2L13.017,5.238A1.32,1.32,0,0,0,11.859,4.567Zm-.007,11.2a1.018,1.018,0,1,1-.01,0Zm0-6.042a.764.764,0,0,1,.763.763v3.156a.763.763,0,0,1-1.527,0V10.485A.764.764,0,0,1,11.85,9.722Z" transform="translate(12543.334 -19636.041)" fill="#dc0303" fill-rule="evenodd"/>
    <path id="Vector" d="M0,0H24V24H0Z" transform="translate(12543 -19636)" fill="none" opacity="0"/>
  </g>
</svg>
