<svg xmlns="http://www.w3.org/2000/svg" width="44" height="44" viewBox="0 0 44 44">
  <g id="Group_169449" data-name="Group 169449" transform="translate(-11017 22077)">
    <rect id="Rectangle_42214" data-name="Rectangle 42214" width="44" height="44" rx="22" transform="translate(11017 -22077)" fill="rgba(255,255,255,0.3)"/>
    <g id="Group_169444" data-name="Group 169444" transform="translate(11017 -22197)">
      <path id="Path_272544" data-name="Path 272544" d="M18.615,146.125a1.659,1.659,0,0,1-1.657-1.657v-4.936a1.657,1.657,0,0,1,1.657-1.657h.811l.668-.668a.829.829,0,0,1,.279-.189.84.84,0,0,1,.315-.06h2.623a.841.841,0,0,1,.316.06.829.829,0,0,1,.278.189l.668.668h.811a1.657,1.657,0,0,1,1.657,1.657v4.936a1.659,1.659,0,0,1-1.657,1.657ZM22,143.569a1.569,1.569,0,1,0-1.11-.46A1.509,1.509,0,0,0,22,143.569Zm.018,8.972a10.538,10.538,0,0,1-10.434-8.7.756.756,0,0,1,.1-.565.607.607,0,0,1,.462-.291.627.627,0,0,1,.52.159.838.838,0,0,1,.27.5,9.07,9.07,0,0,0,8.574,7.5L20.4,150.024a.663.663,0,0,1-.195-.478.648.648,0,0,1,.195-.488.686.686,0,0,1,.966,0l2.8,2.805a.279.279,0,0,1-.134.477,6.8,6.8,0,0,1-.993.159Q22.541,152.541,22.017,152.541Zm-.035-21.083a10.53,10.53,0,0,1,10.434,8.712.742.742,0,0,1-.1.561.614.614,0,0,1-.462.287.628.628,0,0,1-.52-.16.837.837,0,0,1-.27-.5,9.07,9.07,0,0,0-8.574-7.5l1.114,1.114a.666.666,0,0,1,.195.479.646.646,0,0,1-.195.487.683.683,0,0,1-.966,0l-2.8-2.8a.266.266,0,0,1-.077-.283.27.27,0,0,1,.211-.2,7.086,7.086,0,0,1,.993-.159Q21.459,131.458,21.982,131.458Z" fill="#fff"/>
    </g>
  </g>
</svg>
