<svg xmlns="http://www.w3.org/2000/svg" xmlns:xlink="http://www.w3.org/1999/xlink" width="44" height="44" viewBox="0 0 44 44">
  <defs>
    <clipPath id="clip-path">
      <rect id="Rectangle_42217" data-name="Rectangle 42217" width="22" height="22" transform="translate(11 251)" fill="#fff"/>
    </clipPath>
  </defs>
  <g id="Group_169451" data-name="Group 169451" transform="translate(-11017 21957)">
    <g id="Group_169446" data-name="Group 169446" transform="translate(11017 -22197)" clip-path="url(#clip-path)">
      <g id="Group_169445" data-name="Group 169445">
        <path id="Path_272548" data-name="Path 272548" d="M20.133,272.319a.891.891,0,0,1-.623-.241.991.991,0,0,1-.317-.6l-.31-2.414a4.966,4.966,0,0,1-.881-.4,5.652,5.652,0,0,1-.807-.556l-2.234.942a.913.913,0,0,1-.682.035.979.979,0,0,1-.532-.432l-1.608-2.8a.947.947,0,0,1-.113-.676.924.924,0,0,1,.36-.58l1.933-1.463c-.025-.159-.042-.318-.052-.479s-.015-.32-.015-.479.005-.307.015-.464.028-.329.052-.515l-1.933-1.462a.948.948,0,0,1-.365-.58.9.9,0,0,1,.118-.677l1.608-2.78a.981.981,0,0,1,.526-.432.9.9,0,0,1,.677.035l2.233.931a6.842,6.842,0,0,1,.826-.56,5.5,5.5,0,0,1,.863-.408l.321-2.415a.989.989,0,0,1,.317-.6.891.891,0,0,1,.623-.242h3.239a.91.91,0,0,1,.628.242.977.977,0,0,1,.322.6l.311,2.425a5.122,5.122,0,0,1,.871.408,7.259,7.259,0,0,1,.787.55l2.275-.931a.916.916,0,0,1,.677-.04.952.952,0,0,1,.527.426l1.608,2.791a.9.9,0,0,1,.118.677.948.948,0,0,1-.365.58l-1.974,1.493a2.5,2.5,0,0,1,.063.484c0,.15.005.3.005.454s0,.293-.01.443a3.091,3.091,0,0,1-.074.515l1.954,1.473a.946.946,0,0,1,.365.58.9.9,0,0,1-.118.676l-1.608,2.785a.991.991,0,0,1-.54.435.922.922,0,0,1-.69-.032l-2.211-.942a6.955,6.955,0,0,1-.81.56,4.8,4.8,0,0,1-.847.4l-.311,2.425a.98.98,0,0,1-.322.6.909.909,0,0,1-.628.241Zm1.637-6.951a3.185,3.185,0,1,0-2.28-.937A3.092,3.092,0,0,0,21.77,265.368Z" fill="#fff"/>
      </g>
    </g>
  </g>
</svg>
