<svg id="Group_187" data-name="Group 187" xmlns="http://www.w3.org/2000/svg" width="20.728" height="17.052" viewBox="0 0 20.728 17.052">
  <path id="Path_165" data-name="Path 165" d="M-603.841,1484.226q0,3.605,0,7.211a1.213,1.213,0,0,1-1.322,1.286,1.3,1.3,0,0,1-.846-.434q-2.125-2.132-4.253-4.262a.522.522,0,0,0-.413-.171c-.936.009-1.872.005-2.808,0a1.223,1.223,0,0,1-1.322-1.317q0-2.344,0-4.688a1.221,1.221,0,0,1,1.325-1.313c.944,0,1.888,0,2.832,0a.472.472,0,0,0,.37-.157q2.141-2.15,4.289-4.292a1.222,1.222,0,0,1,1.919.089,1.337,1.337,0,0,1,.229.807Q-603.843,1480.608-603.841,1484.226Z" transform="translate(614.807 -1475.674)" fill="#fff"/>
  <path id="Path_166" data-name="Path 166" d="M-396.867,1553.04a1.286,1.286,0,0,1-.4.979c-.472.47-.938.945-1.416,1.41-.114.111-.109.169,0,.277.477.465.952.932,1.413,1.412a1.213,1.213,0,0,1-.514,2.038,1.18,1.18,0,0,1-1.22-.328c-.461-.458-.927-.912-1.376-1.382-.137-.143-.207-.117-.329.008-.465.477-.933.951-1.413,1.412a1.208,1.208,0,0,1-1.568.1,1.22,1.22,0,0,1-.37-1.511,1.487,1.487,0,0,1,.3-.4c.438-.436.869-.88,1.315-1.308.142-.136.171-.211.009-.364-.478-.452-.94-.921-1.4-1.393a1.159,1.159,0,0,1-.3-1.247,1.166,1.166,0,0,1,1.008-.825,1.2,1.2,0,0,1,1.051.388c.465.465.934.927,1.393,1.4.109.112.167.113.277,0,.482-.494.966-.985,1.464-1.463a1.152,1.152,0,0,1,1.339-.242A1.155,1.155,0,0,1-396.867,1553.04Z" transform="translate(417.595 -1547.041)" fill="#fff"/>
</svg>
