<svg xmlns="http://www.w3.org/2000/svg" width="45" height="45" viewBox="0 0 45 45">
  <g id="Group_190" data-name="Group 190" transform="translate(-4506 -2208)">
    <circle id="Ellipse_10" data-name="Ellipse 10" cx="22.5" cy="22.5" r="22.5" transform="translate(4506 2208)" opacity="0.548"/>
    <g id="Group_189" data-name="Group 189" transform="translate(4517 2221)">
      <path id="Path_162" data-name="Path 162" d="M-1055.545,1484.3q0,3.659,0,7.317a1.227,1.227,0,0,1-1.339,1.3,1.316,1.316,0,0,1-.855-.44q-2.15-2.156-4.3-4.31a.529.529,0,0,0-.418-.171c-.947.008-1.894.005-2.841,0a1.236,1.236,0,0,1-1.335-1.334q0-2.371,0-4.742a1.235,1.235,0,0,1,1.343-1.326c.939,0,1.878,0,2.817,0a.555.555,0,0,0,.44-.176q2.162-2.178,4.338-4.343a1.232,1.232,0,0,1,1.924.11,1.356,1.356,0,0,1,.231.817Q-1055.547,1480.649-1055.545,1484.3Z" transform="translate(1066.638 -1475.215)" fill="#fff"/>
      <path id="Path_163" data-name="Path 163" d="M-804.883,1478.453a11.887,11.887,0,0,1-3.551,7.941,1.221,1.221,0,0,1-1.41.3,1.235,1.235,0,0,1-.733-1.194,1.378,1.378,0,0,1,.449-.9,9.076,9.076,0,0,0,2.151-3.406,9.7,9.7,0,0,0-2.053-10.209,1.683,1.683,0,0,1-.551-.931,1.232,1.232,0,0,1,.685-1.267,1.23,1.23,0,0,1,1.419.251,12.151,12.151,0,0,1,2.522,3.66A13.225,13.225,0,0,1-804.883,1478.453Z" transform="translate(827.066 -1468.658)" fill="#fff"/>
      <path id="Path_164" data-name="Path 164" d="M-860.594,1528.626a7.221,7.221,0,0,1-2.132,4.9,1.182,1.182,0,0,1-1.3.329,1.176,1.176,0,0,1-.833-1.048,1.223,1.223,0,0,1,.384-1.021,4.779,4.779,0,0,0,1.332-2.586,4.844,4.844,0,0,0-1.322-4.311,1.247,1.247,0,0,1-.381-1.112,1.173,1.173,0,0,1,.828-.972,1.157,1.157,0,0,1,1.244.289,7.26,7.26,0,0,1,1.986,3.561A8.062,8.062,0,0,1-860.594,1528.626Z" transform="translate(877.85 -1519.253)" fill="#fff"/>
    </g>
  </g>
</svg>
