<svg width="40" height="40" viewBox="0 0 40 40" fill="none" xmlns="http://www.w3.org/2000/svg">
<circle opacity="0.3" cx="20" cy="20" r="20" fill="white"/>
<path d="M23.7077 18.9583L21.8327 20.8333L22.4368 21.5833L23.2077 20.8125C23.1105 21.7292 22.7702 22.5069 22.1868 23.1458C21.6035 23.7847 20.8743 24.1042 19.9993 24.1042H19.4368C19.2841 24.1042 19.1105 24.0694 18.916 24L18.1243 24.6458C18.4021 24.7708 18.6973 24.8854 19.0098 24.9896C19.3223 25.0937 19.6521 25.1458 19.9993 25.1458C21.1521 25.1458 22.1313 24.7292 22.9368 23.8958C23.7424 23.0625 24.1799 21.9722 24.2493 20.625L25.1243 21.5833L25.7285 20.8333L23.7077 18.9583ZM16.291 22.8542L18.166 20.9792L17.5618 20.2292L16.791 21C16.8882 20.0833 17.2285 19.3056 17.8118 18.6667C18.3952 18.0278 19.1243 17.7083 19.9993 17.7083H20.5618C20.7146 17.7083 20.8882 17.7431 21.0827 17.8125L21.8743 17.1667C21.5966 17.0417 21.3014 16.9271 20.9889 16.8229C20.6764 16.7188 20.3466 16.6667 19.9993 16.6667C18.8466 16.6667 17.8674 17.0833 17.0618 17.9167C16.2563 18.75 15.8188 19.8403 15.7493 21.1875L14.8743 20.2292L14.2702 20.9792L16.291 22.8542ZM12.916 27.5C12.5827 27.5 12.291 27.375 12.041 27.125C11.791 26.875 11.666 26.5833 11.666 26.25V15.5625C11.666 15.2431 11.791 14.9549 12.041 14.6979C12.291 14.441 12.5827 14.3125 12.916 14.3125H15.9785L17.4993 12.5H22.4993L24.0202 14.3125H27.0827C27.4021 14.3125 27.6903 14.441 27.9473 14.6979C28.2042 14.9549 28.3327 15.2431 28.3327 15.5625V26.25C28.3327 26.5833 28.2042 26.875 27.9473 27.125C27.6903 27.375 27.4021 27.5 27.0827 27.5H12.916Z" fill="white"/>
</svg>
