<svg xmlns="http://www.w3.org/2000/svg" width="107.076" height="119.75" viewBox="0 0 107.076 119.75">
  <g id="Group_171646" data-name="Group 171646" transform="translate(-16779.086 -233.204)">
    <path id="Union_9" data-name="Union 9" d="M-44.42,168.135a1.662,1.662,0,0,1-1.468-1.409,6.409,6.409,0,0,1-.025-.789q0-15.775,0-31.55c0-4.135,2.013-6.668,6.057-7.624.024-.005.038-.057.056-.086h23.608a11.369,11.369,0,0,1,2.221.679,6.848,6.848,0,0,1,4.081,6.327c.063,7.337.049,14.674.011,22.012a7.055,7.055,0,0,1-7.239,7.013q-9.372.027-18.743,0a1.5,1.5,0,0,0-.975.331c-2.052,1.557-4.119,3.093-6.177,4.642a1.989,1.989,0,0,1-1.215.467A1.732,1.732,0,0,1-44.42,168.135Z" transform="translate(16895.543 107.028)" fill="#f53872" stroke="rgba(0,0,0,0)" stroke-miterlimit="10" stroke-width="1"/>
    <g id="Group_171650" data-name="Group 171650" transform="translate(16779.086 272.563)">
      <g id="Group_171617" data-name="Group 171617" transform="translate(0 0)">
        <path id="Path_272598" data-name="Path 272598" d="M525.476,829.817a40.054,40.054,0,0,1-11.188,27.823q-.816.852-1.683,1.654-.438.409-.889.8a40.191,40.191,0,0,1-54.256-1.268c-.165-.159-.328-.318-.491-.481a40.194,40.194,0,1,1,68.507-28.529Z" transform="translate(-445.086 -789.623)" fill="#e9e9ef"/>
      </g>
      <g id="Group_171618" data-name="Group 171618" transform="translate(23.774 10.125)">
        <path id="Path_272599" data-name="Path 272599" d="M653.386,871.536s-17.854-.555-16.467,18.5,10.639,22.573,10.639,22.573l15.079-.278s10.916-21.463,8.418-30.159S659.677,870.333,653.386,871.536Z" transform="translate(-636.843 -871.29)" fill="#211940"/>
      </g>
      <g id="Group_171619" data-name="Group 171619" transform="translate(11.883 46.241)">
        <path id="Path_272600" data-name="Path 272600" d="M598.374,1184.592l-1.8,1.429-4.893,3.88a40.2,40.2,0,0,1-50.252-4.347c-.165-.159-.328-.317-.491-.481l4.249-9.559a17.93,17.93,0,0,1,13.058-10.338l3.335-.63,3.015-.571.1-.027,5.268-1.36,5.341,1.263,1.948.462,3.891.92a17.93,17.93,0,0,1,11.689,9l5.42,10.136Z" transform="translate(-540.935 -1162.591)" fill="#9e9cab"/>
      </g>
      <g id="Group_171620" data-name="Group 171620" transform="translate(32.488 35.564)">
        <path id="Path_272601" data-name="Path 272601" d="M722.841,1088.875l-1.948-.462v-11.939H710.284v12.036l-.1.027-3.016.57c-.2,2.241.2,6.746,6.645,6.968C723.229,1096.4,724.921,1092.524,722.841,1088.875Z" transform="translate(-707.128 -1076.475)" fill="#e79b79"/>
      </g>
      <g id="Group_171622" data-name="Group 171622" transform="translate(35.644 36.8)" opacity="0.2">
        <g id="Group_171621" data-name="Group 171621">
          <path id="Path_272602" data-name="Path 272602" d="M743.193,1086.444v5.114a8.858,8.858,0,0,1-10.609-.176v-4.938Z" transform="translate(-732.584 -1086.444)"/>
        </g>
      </g>
      <g id="Group_171623" data-name="Group 171623" transform="translate(30.243 13.964)">
        <ellipse id="Ellipse_2197" data-name="Ellipse 2197" cx="10.894" cy="13.963" rx="10.894" ry="13.963" fill="#e79b79"/>
      </g>
      <g id="Group_171624" data-name="Group 171624" transform="translate(29.019 11.455)">
        <path id="Path_272603" data-name="Path 272603" d="M680.066,895.573s9.407.447,12.782-3.849c0,0,1.948,5.383,12.689,5.077,0,0-.614-17.493-14.117-14.424S678.224,890.663,680.066,895.573Z" transform="translate(-679.149 -882.016)" fill="#211940"/>
      </g>
    </g>
    <g id="Group_171651" data-name="Group 171651" transform="translate(17280.539 -127.87)">
      <path id="Path_272613" data-name="Path 272613" d="M-421.063,546.986a3.841,3.841,0,0,0,.143-.653A5.407,5.407,0,0,1-416.2,542.2c.505-.048,1.011-.024,1.516-.027.866-.005,1.732,0,2.6,0a5.393,5.393,0,0,1,5.344,4.331,5.337,5.337,0,0,1,.105,1.149c0,.48,0,.961,0,1.441a2.266,2.266,0,0,1-2.306,2.3q-4.9.005-9.8,0A2.276,2.276,0,0,1-421,549.637c-.013-.049.007-.119-.061-.147Z" transform="translate(0 -162.658)" fill="#fff"/>
      <path id="Path_272614" data-name="Path 272614" d="M-346.817,374.677a3.837,3.837,0,0,1-3.859,3.824,3.836,3.836,0,0,1-3.824-3.9,3.84,3.84,0,0,1,3.915-3.786A3.84,3.84,0,0,1-346.817,374.677Z" transform="translate(-63.188)" fill="#fff"/>
      <path id="Path_272615" data-name="Path 272615" d="M-170.945,437.475c0-.183,0-.367,0-.55a1.08,1.08,0,0,1,1.057-1.05,1.068,1.068,0,0,1,1.112,1.01c.018.385.012.771,0,1.156,0,.134.039.171.17.168.347-.009.7-.008,1.043,0a1.1,1.1,0,0,1,1.13,1.1,1.1,1.1,0,0,1-1.145,1.085c-.329,0-.658.012-.986,0-.18-.009-.218.051-.212.219.012.36.012.721,0,1.08a1.074,1.074,0,0,1-1.029,1.041,1.073,1.073,0,0,1-1.124-.893,8.876,8.876,0,0,1-.023-.965c0-.155.071-.362-.033-.452-.088-.076-.289-.024-.439-.025-.253,0-.506,0-.758,0a1.1,1.1,0,0,1-1.108-1.047,1.075,1.075,0,0,1,1-1.127c.389-.032.783-.017,1.175-.011.128,0,.179-.027.17-.165-.012-.189,0-.379,0-.569Z" transform="translate(-235.211 -61.756)" fill="#fff"/>
    </g>
  </g>
</svg>
