<svg xmlns="http://www.w3.org/2000/svg" xmlns:xlink="http://www.w3.org/1999/xlink" width="144.233" height="48.7" viewBox="0 0 144.233 48.7">
  <defs>
    <linearGradient id="linear-gradient" x1="0.5" x2="0.5" y2="1" gradientUnits="objectBoundingBox">
      <stop offset="0" stop-color="#a16e00"/>
      <stop offset="0.026" stop-color="#ac7d10"/>
      <stop offset="0.101" stop-color="#c9a63c"/>
      <stop offset="0.174" stop-color="#e0c75e"/>
      <stop offset="0.243" stop-color="#f1de77"/>
      <stop offset="0.306" stop-color="#fbec85"/>
      <stop offset="0.358" stop-color="#fff18b"/>
      <stop offset="0.4" stop-color="#fbeb85"/>
      <stop offset="0.452" stop-color="#f1dd76"/>
      <stop offset="0.51" stop-color="#dfc55d"/>
      <stop offset="0.571" stop-color="#c7a439"/>
      <stop offset="0.635" stop-color="#a97a0c"/>
      <stop offset="0.652" stop-color="#a16e00"/>
      <stop offset="0.654" stop-color="#a16f01"/>
      <stop offset="0.671" stop-color="#a67608"/>
      <stop offset="0.719" stop-color="#a8780a"/>
      <stop offset="0.761" stop-color="#c19019"/>
      <stop offset="0.804" stop-color="#dfad2b"/>
      <stop offset="0.91" stop-color="#a16e00"/>
    </linearGradient>
    <filter id="Path_211780" x="0" y="0" width="144.233" height="48.7" filterUnits="userSpaceOnUse">
      <feOffset dy="3" input="SourceAlpha"/>
      <feGaussianBlur stdDeviation="3" result="blur"/>
      <feFlood/>
      <feComposite operator="in" in2="blur"/>
      <feComposite in="SourceGraphic"/>
    </filter>
  </defs>
  <g transform="matrix(1, 0, 0, 1, 0, 0)" filter="url(#Path_211780)">
    <path id="Path_211780-2" data-name="Path 211780" d="M26.747-29.228c-.653,5.695-3.736,18.318-3.736,18.318s-2.358-11.317-2.72-15.779c-.109-1.56-5.8.218-6.42,1.777a.389.389,0,0,0-.036.4l.435,1.632c.834,5.4-2.321,12.913-2.321,12.913S9.01-25.346,8.393-31.005c-.181-1.6-7.146,1.342-6.674,2.829C3.859-21.719,7.2-9.568,8.538-3.292c.29,1.451,5.84,1.415,6.348,0,.871-2.575,1.7-5.695,2.5-8.959.943,2.9,1.886,5.659,2.72,8.016.472,1.415,6.021,1.487,6.348,0,1.342-6.275,4.316-17.3,6.457-23.723C33.385-29.445,26.893-30.787,26.747-29.228Zm7.762,2.1c.472,6.747-.653,22.526.181,23.614.725.979,3.99-.363,4.389-.871.326-.4,1.088-22.6.689-22.925C39.334-27.6,34.4-28.611,34.51-27.124ZM41.8-3.365c-.073,1.487,5.84,1.922,5.949.435.218-3.228.145-15.743.145-15.743S53.553-7.681,55.548-4.127c.472.834,3.664-.145,3.664-1.088.073-5.006.762-19.914,1.306-25.681.145-1.415-5.514-1.415-5.659,0-.363,3.446,0,17.121,0,17.121S49.346-24.4,47.205-28.792c-.435-.907-3.772.109-3.881,1.088C42.671-22.517,42.055-9.06,41.8-3.365Zm19.733,0c-.073,1.487,5.84,1.922,5.949.435.218-3.228.145-15.743.145-15.743S73.286-7.681,75.281-4.127c.472.834,3.664-.145,3.664-1.088.073-5.006.762-19.914,1.306-25.681.145-1.415-5.514-1.415-5.659,0-.363,3.446,0,17.121,0,17.121S69.078-24.4,66.938-28.792c-.435-.907-3.772.109-3.881,1.088C62.4-22.517,61.787-9.06,61.533-3.365ZM99.91-7.319A65.049,65.049,0,0,0,89.79-6.085c.036-1.6.145-4.063.29-6.711,2.321-.109,5.695-.326,5.731-.58.073-.363.508-3.591,0-3.809a36.321,36.321,0,0,0-5.4-.218c.109-1.886.254-3.736.363-5.332,4.1-.762,8.2-1.523,8.452-1.669.472-.254,1.161-5.115.617-5.767-.58-.689-18.1,3.337-18.39,3.954-.326.617.109,4.607.8,5.006,0,0,1.016-.181,2.575-.472.29,7.436,1.052,19.769,1.451,19.66,1.451.4,10.12-.762,13.312-.762C100.6-2.748,100.672-7.355,99.91-7.319ZM127.8-7.391A58.585,58.585,0,0,1,121.71-15.7c3.555-3.446,3.373-8.415,2.793-10.809-2.176-8.851-18.028-6.892-21.981,1.016-.725,1.378,4.026,5.586,4.534,4.135,2.757-7.617,13.167-7,14-2.684.725,3.664-1.7,6.239-4.389,7.363.036-3.482.181-6.2.254-6.565.254-1.378-4.135-2.866-4.5-1.016-.109.58-1.741,20.784-1.669,21.292.218,1.161,6.493,1.886,6.348.8-.326-2.938-.435-6.964-.472-10.7.472-.145.907-.29,1.342-.472,1.306,2.866,3.845,7.98,5.223,9.358C124.068-3.111,128.747-6.376,127.8-7.391Z" transform="translate(7.3 38.33)" fill="url(#linear-gradient)"/>
  </g>
</svg>
